<ttFont>
          <CharString index="0">
            -106 callgsubr
            endchar
          </CharString>
          <CharString index="1">
            rmoveto
            -327.99000549316406 -246 -347.02000427246094 -379 -10 hvcurveto
            -226 -6 111 -230.99000549316406 289 hhcurveto
            194 163.99000549316406 126.99000549316406 8 callgsubr
            57.02000427246094 hvcurveto
            -37 68 rlineto
            142 callgsubr
            -109 hhcurveto
            -211 -56 220 -5 callsubr
            13.990005493164062 hvcurveto
            200 5 506 127.02000427246094 314 vvcurveto
            140.99000549316406 -90.99000549316406 109.02000427246094 -190.02000427246094 vhcurveto
            126.02000427246094 -263 rmoveto
            -213 -321 -122.99000549316406 -226 -7 vhcurveto
            213 -63 callgsubr
            140 299 225 hhcurveto
            99 62.02000427246094 -57 -112 hvcurveto
            endchar
          </CharString>
          <CharString index="2">
            -24 callgsubr
            -9 181 callgsubr
            -29.979995727539062 -19 -30 hhcurveto
            -19 -17 23 -5 callgsubr
            7 hvcurveto
            141 980.0099945068359 -40.02000427246094 -63 callgsubr
            -250 -41.99000549316406 -28 callgsubr
            -65 134 -40 rlineto
            return
          </CharString>
          <CharString index="3">
            -94 callgsubr
            -463.00999450683594 rmoveto
            -269.99000549316406 4 -131 -352.00999450683594 281 callsubr
            hhcurveto
            -171 -94 132 231.02000427246094 51 callsubr
            273 48 callsubr
            129 350.99000549316406 257 406 callsubr
            endchar
          </CharString>
          <CharString index="4">
            rmoveto
            -7 -59 -2 -29 callsubr
            1 -52 rrcurveto
            -275.97999572753906 5 155.02000427246094 -170 285 hhcurveto
            343 193.99000549316406 175 472 61 hvcurveto
            105 796 58 callgsubr
            18 8 81 rlineto
            -398.99000549316406 hlineto
            -8 163 callgsubr
            -105 -793.9900054931641 rlineto
            -378 -45 -142 -180 -256 hhcurveto
            -210 -101 133 216 -4 hvcurveto
            -1 57 2 59 -84 callgsubr
            68 callsubr
            109.02000427246094 814 rcurveline
            67 callgsubr
            8 80 rlineto
            -446.00999450683594 90 callsubr
            140 -19 -110 -830 rlineto
            endchar
          </CharString>
          <CharString index="5">
            rmoveto
            205.99000549316406 321 rlineto
            130 195.99000549316406 148 272 184.02000427246094 vvcurveto
            128.99000549316406 -6 callsubr
            86 callgsubr
            -70 -41.99000549316406 -30 -28 -58 -36 74 callsubr
            -46 -39 callsubr
            -70 vhcurveto
            285 callgsubr
            -222 -161.02000427246094 173 callsubr
            -65 -91.00999450683594 -134.99000549316406 -194.99000549316406 rcurveline
            -18 189.99000549316406 -74.02000427246094 842 rlineto
            -134 hlineto
            -372.97999572753906 -862.9900054931641 80 callgsubr
            -169 -19 189.99000549316406 244 callsubr
            713.0200042724609 rlineto
            87.97999572753906 -12 -79 callsubr
            49 -90.99000549316406 hhcurveto
            -96.00999450683594 121 callsubr
            172 callgsubr
            -21 49 callgsubr
            112 callgsubr
            -63 callgsubr
            17 25.009994506835938 17 callgsubr
            74 callsubr
            15 callsubr
            rlinecurve
            25 -1 14 -79 callsubr
            10 -50 103 -653 rcurveline
            56.02000427246094 -343 58 callgsubr
            12 144 297 245 513.9900054931641 46 135 7 -134 49 -482 35 -340.99000549316406 145 11 rlineto
            endchar
          </CharString>
          <CharString index="6">
            292 225 168.97999572753906 280 -5 hvcurveto
            -4.0099945068359375 216 -174 63 callsubr
            -151 -66 callsubr
            rrcurveto
            -139 86 -151 1 callgsubr
            181 vvcurveto
            174 160 75 146 111 86 -57 callsubr
            -30 42 vhcurveto
            11 -193.99000549316406 rlineto
            82 hlineto
            46 260 rlineto
            37 -55 105 callsubr
            60 callgsubr
            -191.02000427246094 hhcurveto
            -255 -219 -161 -240.99000549316406 5 hvcurveto
            132 callgsubr
            -225.02000427246094 195 -117 155 -97 134 -83 137 92 callgsubr
            -6 -176 rrcurveto
            -197 -8 -191 -83 -158 hhcurveto
            -98 -112 25 -22 callgsubr
            -57 hvcurveto
            -12 210 rlineto
            return
          </CharString>
          <CharString index="7">
            rmoveto
            -395.99000549316406 -304 -390.99000549316406 -532.0099945068359 7 hvcurveto
            -356 5 170.99000549316406 -282.97999572753906 327 hhcurveto
            398.00999450683594 297.97999572753906 398 529.9900054931641 -89 callsubr
            hvcurveto
            345 -6 -159 289 -332 hhcurveto
            return
          </CharString>
          <CharString index="8">
            rmoveto
            -337 -233 -361 -363.00999450683594 4.0200042724609375 hvcurveto
            -291 4 141 -167.99000549316406 251.99000549316406 hhcurveto
            337 232.02000427246094 363.99000549316406 359.02000427246094 -4.0099945068359375 hvcurveto
            290 -4 -139 170 -253 hhcurveto
            return
          </CharString>
          <CharString index="9">
            -59 callsubr
            -154.99000549316406 400 callgsubr
            150 19 8 81 rlineto
            -435 hlineto
            -11 callgsubr
            -81 136 -19 0 callsubr
            -149 315 callsubr
            return
          </CharString>
          <CharString index="10">
            rmoveto
            -279 133.02000427246094 -171 227.99000549316406 190.02000427246094 122 114.99000549316406 56 50 vhcurveto
            166 callgsubr
            rlineto
            -73 256 callgsubr
            -74 -52 477 callgsubr
            -151 -92 121 240 349.97999572753906 151 242.02000427246094 239 64 70 -29 -40 56 hvcurveto
            7 -5 7 213 callgsubr
            7 -5.9799957275390625 104 callsubr
            -5 callsubr
            rcurveline
            29 -57 -90.99000549316406 19 248 callsubr
            81 callgsubr
            hvcurveto
            endchar
          </CharString>
          <CharString index="11">
            167 callgsubr
            454 -59 callsubr
            -159 400 callgsubr
            151.02000427246094 19 9 305 callgsubr
            -7.9900054931640625 -81 135 -19 -18 -142.99000549316406 -160 -116 -636.9900054931641 -685.0200042724609 174 callsubr
            -126 135 1070 150 42 callgsubr
            -431 83 callgsubr
            33 callsubr
            -7 -69 rlineto
            452 -59 callsubr
            -155 24 15 124 196 166.02000427246094 618.9900054931641 674 75 105.99000549316406 -134 -1070 -147.99000549316406 315 callsubr
            endchar
          </CharString>
          <CharString index="12">
            rmoveto
            -57 -40 136 callsubr
            -200 2 -86 rrcurveto
            66 hlineto
            6 99 45 100 68 4 180 callsubr
            -68 callsubr
            402.99000549316406 -13 80.02000427246094 -1 -148 -167 rcurveline
            -670 -815 52 -23 callgsubr
            -8 callsubr
            141 callgsubr
            27 -22 callgsubr
            7 24 118 300 -34.970001220703125 147 hhcurveto
            49 34 9 11 17 hvcurveto
            57 -22 callgsubr
            26 357 callgsubr
            -20 -49 -71 -105.99000549316406 hhcurveto
            156 callsubr
            -310.99000549316406 6 2 -112 hvcurveto
            322 354 479.99000549316406 632 69 callgsubr
            42 1 280 callsubr
            -6 callsubr
            -26 callsubr
            -4.0099945068359375 -30 -122 -305.99000549316406 31 -144.02000427246094 hhcurveto
            474 callsubr
          </CharString>
          <CharString index="13">
            -100 callsubr
            340 return
          </CharString>
          <CharString index="14">
            rmoveto
            -18.979995727539062 -22 callgsubr
            55 -12 59 hhcurveto
            203.97999572753906 287 callgsubr
            238 callgsubr
            130 63 hvcurveto
            524 1083.990005493164 110 21.020004272460938 -8 callsubr
            80 rlineto
            -372 hlineto
            -9.020004272460938 -81 145 -79 callsubr
            -349 -763.9900054931641 -89 -220.02000427246094 -57 218 -228 767 163 -43 callgsubr
            7 80 rlineto
            -436 hlineto
            -10 -81 124 155 callsubr
            351.99000549316406 -1117 rlineto
            105 callsubr
            69 callgsubr
            -61 -52 -124 hhcurveto
            -139 366 callgsubr
            -123 rlineto
            endchar
          </CharString>
          <CharString index="15">
            -96.00999450683594 -63 -141 -152 -145 hhcurveto
            -133 -56 132.02000427246094 204.99000549316406 271.00999450683594 158.99000549316406 362 302 59 62 -13 -34 45 hvcurveto
            return
          </CharString>
          <CharString index="16">
            -2 callsubr
            111.99000549316406 33 151.02000427246094 435 callsubr
            221 -87 74.02000427246094 -140.99000549316406 -162.02000427246094 -173 -131 -150 -112 vhcurveto
            130 callsubr
            84 callgsubr
            -205 -42 -32 callsubr
            -72 rlineto
            return
          </CharString>
          <CharString index="17">
            167 callgsubr
            449 -59 callsubr
            -155 414 callgsubr
            173 hlineto
            146 193 callsubr
            -704.9799957275391 434 callsubr
            212.99000549316406 hlineto
            -68 callsubr
            69 -93 17 callgsubr
            -105 53 -218 567.0099945068359 -163 70 rlinecurve
            549 635.9900054931641 156 8 callsubr
            10 80 rlineto
            -441 hlineto
            -10 -81 158 -79 callsubr
            -517 -629 rlineto
            -181 hlineto
            158 callgsubr
            630 150 42 callgsubr
            444 callsubr
            hlineto
            -9 -81 136 -19 177 callsubr
            -630 rlineto
            -164.99000549316406 hlineto
            -381.00999450683594 629 164 21.020004272460938 -31 callsubr
            80 rlineto
            -441 264 callsubr
            -80 152 222 callsubr
            408.99000549316406 -636.9900054931641 -179 80 callgsubr
            -378 -582.9900054931641 -92 -28.020004272460938 rlinecurve
            -88 -83 callsubr
            433 callgsubr
            209.97999572753906 hlineto
            119 callsubr
            386 704.9799957275391 140.99000549316406 hhcurveto
            153 hlineto
            -77 -611 304 callsubr
          </CharString>
          <CharString index="18">
            -8.990005493164062 return
          </CharString>
          <CharString index="19">
            -19 0 334 callsubr
            -1 vhcurveto
            -88 -4 40 -33.99000549316406 65 hhcurveto
            103 81 1 callsubr
            25 79 callsubr
            503 callgsubr
            -35.99000549316406 -39 -30 -19 -29 hhcurveto
            -17 -12 24 -76 callgsubr
            6 hvcurveto
            216 1469.009994506836 -43 23 -234 142 callsubr
            129 -33 -58 -380.99000549316406 rlineto
            16 -54 -66 13 -56 hhcurveto
            return
          </CharString>
          <CharString index="20">
            -38 callgsubr
            243.00999450683594 7 callsubr
            332.97999572753906 -51 callgsubr
            219.02000427246094 -51 callgsubr
            389 callsubr
            255 callsubr
            hintmask 11111010
            332.97999572753906 11 callsubr
            178 callgsubr
            53 57 70 -10 callsubr
            -37 callgsubr
            hintmask 11111100
            422.02000427246094 218 callsubr
            -560 76 callsubr
            hintmask 11111010
            99.99000549316406 187 163 274.97999572753906 226 vvcurveto
            116 -39 64 -67.99000549316406 -42 -32 -23 -58.99000549316406 vhcurveto
            -42 34.02000427246094 -33 -52 vvcurveto
            -227.99000549316406 179 callgsubr
            -193 -107.99000549316406 -225 vhcurveto
            -18 -44 callgsubr
            -107 -218 -46.99000549316406 -85.97000122070312 -28.020004272460938 284.97999572753906 rcurveline
            -104 764 rlineto
            83 -12 -47 callsubr
            -81 callgsubr
            258 callsubr
            hhcurveto
            -95.99000549316406 -82 -96.99000549316406 -24 46 callgsubr
            112 callgsubr
            rlineto
            39 40 24 18 27 hhcurveto
            hintmask 11111100
            8 callsubr
            16 -12 -59 11 hvcurveto
            endchar
          </CharString>
          <CharString index="21">
            -250 92.02000427246094 -182 226 146.99000549316406 134 -13 callgsubr
            104 77 vhcurveto
            54 callgsubr
            rlineto
            return
          </CharString>
          <CharString index="22">
            345 callgsubr
            497.99000549316406 -59 callsubr
            -199.99000549316406 24 351 callsubr
            940.0099945068359 83 403.99000549316406 68 -396 180 -1059.979995727539 236 callgsubr
            131 callgsubr
            490.99000549316406 1069.9700012207031 158 374 -29 -421.99000549316406 -41 -925 -186 -23.020004272460938 171 callgsubr
            506.97999572753906 hlineto
            7 -78 callgsubr
            -170 25 -51 callsubr
            1327 386 callgsubr
            19 8 81 rlineto
            -374 hlineto
            -107.99000549316406 -272 -271.00999450683594 -519 -106.99000549316406 -272 106 callgsubr
            -220.02000427246094 rcurveline
            129 callgsubr
            224 -177 1059 rlineto
            -397 -71 callgsubr
            185 -19 -331 -1328 -171.99000549316406 -24 rlineto
            endchar
          </CharString>
          <CharString index="23">
            274.97999572753906 -110 162.02000427246094 -160 -142.99000549316406 -103 -145.02000427246094 -56 -38 vhcurveto
            34 -42 rlineto
            80.02000427246094 74.02000427246094 52 143 callsubr
            82 hhcurveto
            257 callsubr
            70 121 callgsubr
            -238 -362 -173 -254 -132 46 callgsubr
            -91 89 132 callgsubr
            -8 hvcurveto
            -51.97999572753906 -147.99000549316406 rlineto
            -23 28 135 callgsubr
            -12 63 hhcurveto
            240 185 268 301 -5 callgsubr
            hvcurveto
            264 hlineto
            -65 -548.9900054931641 148 -1 65 549.9900054931641 rlineto
            return
          </CharString>
          <CharString index="24">
            -24.990005493164062 return
          </CharString>
          <CharString index="25">
            766 -20 105 951.9799957275391 212 callgsubr
            88 callsubr
            380.02000427246094 153 -50.010009765625 192 callgsubr
            hintmask 11010100
            875.9900054931641 483 callgsubr
            -47 callgsubr
            hintmask 11011000
            -18 -117 -29 -152 -3.9900054931640625 -99 rrcurveto
            -81 -3 36 46 callsubr
            336 callgsubr
            109 89.00999450683594 61 callsubr
            17 hvcurveto
            -25 160 callgsubr
            -49 -19 callgsubr
            -32 -22 46 callsubr
            hhcurveto
            -79 callsubr
            -6 28 45 3 hvcurveto
            6.9900054931640625 105 27.009994506835938 131 callsubr
            17 105 rrcurveto
            hintmask 11110100
            19 116 100 callgsubr
            149 -80 callgsubr
            hintmask 11010100
            -121 -44 callgsubr
            -164 -19 -117 vhcurveto
            endchar
          </CharString>
          <CharString index="26">
            126 callsubr
            970 hlineto
            -66 callsubr
            430.97999572753906 140 callsubr
            -345.99000549316406 -545 -20 callsubr
            118 callgsubr
            176 19 8 81 rlineto
            -461 83 callgsubr
            -150 -24 rlineto
            return
          </CharString>
          <CharString index="27">
            609 429 callgsubr
            507.010009765625 98 -93 93 32 callgsubr
            543.9900054931641 159 539 92 callsubr
            hintmask 11101110
            87.97999572753906 409.99000549316406 rmoveto
            -264.99000549316406 95 -165 206 181 151 183.99000549316406 153 68 callsubr
            vhcurveto
            -200.99000549316406 25.009994506835938 110 -136 231 hhcurveto
            201 169.99000549316406 126.99000549316406 8 callgsubr
            58 hvcurveto
            -35.99000549316406 68 rlineto
            -115 -120.00999450683594 -141.99000549316406 -47 -114.00999450683594 hhcurveto
            -207 -34 189.99000549316406 185 11 hvcurveto
            199 5 495.99000549316406 124 314 vvcurveto
            hintmask 11011110
            141 -87 117 -191 -6 vhcurveto
            -130 -4.0099945068359375 -120 -63 -96.99000549316406 -98 rrcurveto
            hintmask 11101110
            29 165 -113.00999450683594 -34 -2 -2 rlineto
            19 -25 callgsubr
            -77 17 -68 hhcurveto
            -409 -233 -443 -309 hvcurveto
            hintmask 11011110
            1398 489 rmoveto
            -213 -311.99000549316406 -122 -223 -7 vhcurveto
            213 21 137 299 220 hhcurveto
            103 54 -58 -112 hvcurveto
            302 callgsubr
            -231 rmoveto
            -23.020004272460938 -74.02000427246094 -32 callsubr
            4 callgsubr
            -1 80 callgsubr
            rrcurveto
            -32 callsubr
            vlineto
            -108.00999450683594 -53 -149 -221 -171 hhcurveto
            -107.99000549316406 -63 103.02000427246094 231 hvcurveto
            hintmask 11101110
            270.99000549316406 270 callsubr
            365.02000427246094 303 67.99000549316406 65 46 callgsubr
            -39 45 vhcurveto
            hintmask 11011110
            -58.99000549316406 -342 rlineto
            endchar
          </CharString>
          <CharString index="28">
            -20.009994506835938 return
          </CharString>
          <CharString index="29">
            rmoveto
            -84.99000549316406 -56 -128.99000549316406 -119.00999450683594 -146 hhcurveto
            -129 -41 callsubr
            123 206 257.99000549316406 149.02000427246094 384 311.99000549316406 63 69 -15 -40 48 hvcurveto
            -109 -712.0099945068359 rlineto
            endchar
          </CharString>
          <CharString index="30">
            rmoveto
            99 callsubr
            988 hlineto
            72 298.97999572753906 300 callgsubr
            25 -94.99000549316406 -211 -593 -19 136 callgsubr
            640 444 -28 callgsubr
            10 132 -444.99000549316406 -19 178 callsubr
            600 481.02000427246094 -11 34 -195 rlineto
            82 hlineto
            7 212 callsubr
            rlineto
            -1328 hlineto
            -11 -80 310.99000549316406 -19 rlineto
            hintmask 10111100
            -711.9900054931641 -1330 79 callgsubr
            -24 -13 -69 rlineto
            555.9900054931641 hlineto
            5 69 -226 17 callgsubr
            205.99000549316406 406.02000427246094 rlineto
            505.02000427246094 hlineto
            hintmask 01111100
            -49 -407 -130 -24 rlineto
            143 1351.990005493164 rmoveto
            146 -5 -99 -819 rlineto
            -466 hlineto
            419 823.9900054931641 rlineto
            endchar
          </CharString>
          <CharString index="31">
            -83 callsubr
            45 rcurveline
            -52 -50 -34 -34 callsubr
            -29 hhcurveto
            -19 -11.990005493164062 -72 callgsubr
            -5 -37 16 callsubr
            -572 -31 -227.99000549316406 rrcurveto
            -110.02000427246094 -75 -141 -114 -118 hhcurveto
            -94.99000549316406 -63 33 156.02000427246094 105.99000549316406 17 94 16 120.00999450683594 hvcurveto
            68 539 61 callgsubr
            17 callsubr
            37 callgsubr
            return
          </CharString>
          <CharString index="32">
            -3 callsubr
            459 callgsubr
            92 163 143 callgsubr
            348 callgsubr
            219.00001525878906 -51 callgsubr
            257 callgsubr
            -5 callsubr
            hintmask 11111101
            354.97999572753906 89 callsubr
            298 callsubr
            40 callsubr
            -10 callsubr
            -35 40.02000427246094 -57 235 callgsubr
            -1 hvcurveto
            hintmask 11111110
            422.02000427246094 -14 callgsubr
            hintmask 11111101
            205 callgsubr
            -336 -106 callsubr
          </CharString>
          <CharString index="33">
            151 -14 98 653.9900054931641 223 callgsubr
            591.5099945068359 -73 callgsubr
            -79.02000427246094 94 hstemhm
            1016.9900054931641 301 callgsubr
            -141.00001525878906 149 hintmask 11011000
            34 69 167 callgsubr
            216 hlineto
            71 120 callsubr
            -14 77 hhcurveto
            356.99000549316406 317.00999450683594 141 362.99000549316406 -6 441 callsubr
            175 -139.02000427246094 120.00999450683594 -164.99000549316406 21 rrcurveto
            hintmask 11010100
            196 164 callgsubr
            123 131 callsubr
            -4 420 callgsubr
            rrcurveto
            170 -3 237 callsubr
            156 callgsubr
            -309 hhcurveto
            hintmask 11101000
            -99 -91.00999450683594 -28 callgsubr
            -2 92 callgsubr
            hvcurveto
            149 callsubr
            hintmask 11011000
            394 callgsubr
            466 1362 rmoveto
            6.9900054931640625 56 111 5 41 hhcurveto
            hintmask 11010100
            233 94 -83.99000549316406 -161 316 callsubr
            -243.02000427246094 3 -166 -115 -210 hhcurveto
            -74 -92 -39 callsubr
            78 callgsubr
            -71 hvcurveto
            hintmask 11011000
            112 callsubr
            591.0099945068359 rlineto
            -87 -698 rmoveto
            78 callgsubr
            52.99000549316406 236 callgsubr
            2 140.99000549316406 hhcurveto
            206 116 -88 -178 2 hvcurveto
            -286.97999572753906 132 callgsubr
            -209 205 callgsubr
            -268 hhcurveto
            -42 -128 6 13 -39 hvcurveto
            78 630 rlineto
            endchar
          </CharString>
          <CharString index="34">
            -17 callgsubr
            -51 callsubr
            -58 hhcurveto
            return
          </CharString>
          <CharString index="35">
            rmoveto
            -24 8 callsubr
            -81 callgsubr
            -13 64 hhcurveto
            229 3 callsubr
            177 342.97999572753906 41 hvcurveto
            134 1136 61 callgsubr
            -256 -41.99000549316406 -13 484 callgsubr
            -109 372 callgsubr
            -31 164 callsubr
            -227 -201.97000122070312 hhcurveto
            -28.020004272460938 -40.99000549316406 -68 callsubr
            -84 callgsubr
            -18 hvcurveto
            -28.020004272460938 -65.99000549316406 rlineto
            endchar
          </CharString>
          <CharString index="36">
            -19 -112 -6 callsubr
            -155 -3.9900054931640625 -94 rrcurveto
            -84.99000549316406 -5 44 -31 344 callgsubr
            89 70 callsubr
            -11 callsubr
            15 hvcurveto
            -44 callgsubr
            104 callsubr
            rlineto
            -40 callgsubr
            -49 226 callgsubr
            -79 callsubr
            -32 hhcurveto
            -21 -20 callsubr
            -11 callsubr
            47 2 hvcurveto
            -68 callsubr
            103 28 71 callgsubr
            18 102.02000427246094 rrcurveto
            return
          </CharString>
          <CharString index="37">
            89.99000549316406 return
          </CharString>
          <CharString index="38">
            221.97999572753906 607.9900054931641 rmoveto
            -89 callsubr
            4 callgsubr
            rlineto
            654.9900054931641 hlineto
            -8 callsubr
            136 callgsubr
            -260.00999450683594 -43 callgsubr
            111 892.9900054931641 -29 callgsubr
            131 callgsubr
            rlineto
            -2 hlineto
            -109 -80 -166 -52 -116 -33 6 -83 rcurveline
            93 17.020004272460938 131 29 76 34 -94 -739 rcurveline
            -264.00999450683594 -19.009994506835938 rlineto
            return
          </CharString>
          <CharString index="39">
            8.009994506835938 return
          </CharString>
          <CharString index="40">
            rmoveto
            255 callgsubr
            16 callsubr
            rlineto
            1008.9900054931641 hlineto
            93 352.99000549316406 -93 25 -116.99000549316406 -272.02000427246094 -728 -47 callsubr
            145 187.99000549316406 867 1179.009994506836 -79 callsubr
            69 rlineto
            -938 hlineto
            -56 -344 91 -19 101 callsubr
            265.00999450683594 663 6 -178 -213.02000427246094 -844 -1143.990005493164 rlineto
            endchar
          </CharString>
          <CharString index="41">
            95.99000549316406 return
          </CharString>
          <CharString index="42">
            -82 callgsubr
            101 callgsubr
            -108.00999450683594 44 100 callgsubr
            return
          </CharString>
          <CharString index="43">
            rmoveto
            396 833.9900054931641 13 -117.99000549316406 -13 callgsubr
            -716 rlineto
            -529 hlineto
            endchar
          </CharString>
          <CharString index="44">
            190 callgsubr
            169 callsubr
            hintmask 11010000
            855 483 callgsubr
            hintmask 11100000
            -71 callsubr
            hintmask 11010000
            -25 callsubr
            102.00999450683594 757 145 callgsubr
            -201 -1514.990005493164 -27 callgsubr
            endchar
          </CharString>
          <CharString index="45">
            237 -20 110 954.9900054931641 105 hstem
            321.97999572753906 155 384.010009765625 151.25999450683594 vstem
            299 callgsubr
            -372 rmoveto
            65 429.99000549316406 29 -48 63 -29 77 -1 rlinecurve
            158 174 callgsubr
            74.99000549316406 76 76 hvcurveto
            -120 -18 40 -29 77 hhcurveto
            1 callsubr
            82 13 callgsubr
            255 callgsubr
            15 hvcurveto
            -27 46 rlineto
            156 callsubr
            -36 -57 callsubr
            -11.979995727539062 -34 callsubr
            hhcurveto
            -35 4 143 callsubr
            59 -68 callsubr
            hvcurveto
            128 951.0099945068359 rlineto
            -148 hlineto
            -120 -879 rlineto
            -70 -65 -136 205 callgsubr
            -117.99000549316406 hhcurveto
            -107 -70 57 158 2 hvcurveto
            78 callgsubr
            126 28 132.02000427246094 19 202 callsubr
            17 117 18 117 -8 callsubr
            106 rrcurveto
            98 9 13 callsubr
            31 248 callsubr
            -89 -77 80 callgsubr
            226 callgsubr
            -28 callgsubr
            hvcurveto
            -7 callgsubr
            -43 rlineto
            29 30 22 131 callgsubr
            -43 callgsubr
            hhcurveto
            30 0 -35 -49 -3 hvcurveto
            -22 -209 -38 -203 -28 -191 -107.99000549316406 -729.9900054931641 rcurveline
            91 callgsubr
            hlineto
            endchar
          </CharString>
          <CharString index="46">
            167 callgsubr
            502 callsubr
            hlineto
            371 callsubr
            -78 callgsubr
            -188.99000549316406 24 157 callsubr
            577 rlineto
            -1 57.02000427246094 163 1 16 hhcurveto
            94 3 98 -234 81 -190 rrcurveto
            -208.02000427246094 83 39 -41.97999572753906 46 hhcurveto
            190 hlineto
            3 158 callgsubr
            -140 1 7 17 callgsubr
            -108.99000549316406 232.02000427246094 rlinecurve
            -42 85 -105 210 177 callsubr
            58 247 64 158 194 -5 250 rrcurveto
            235.99000549316406 48 callsubr
            -146 104 -327.99000549316406 hhcurveto
            hintmask 11101000
            -84 258 callsubr
            -16 -83.99000549316406 hhcurveto
            149 callsubr
            hintmask 11011000
            -135 315 callsubr
            616 694.9900054931641 rmoveto
            -40 -39 callsubr
            79 callgsubr
            -34 callgsubr
            70 callgsubr
            3 88 660.9900054931641 rcurveline
            -68 callsubr
            54 -21 callgsubr
            -31 callsubr
            31 hhcurveto
            265.02000427246094 319 callsubr
            -84.99000549316406 -175 4.0200042724609375 377 callsubr
            endchar
          </CharString>
          <CharString index="47">
            350 callgsubr
            422 callgsubr
            380.99000549316406 -16 -17 -345 84 1 -20 callgsubr
            447 rlineto
            -1136.990005493164 hlineto
            -41 callsubr
            -447 88 -34 callgsubr
            83 342.02000427246094 377 16 -172 -1341.009994506836 -244 -34 callsubr
            rlineto
            return
          </CharString>
          <CharString index="48">
            hlineto
            -37 callsubr
            return
          </CharString>
          <CharString index="49">
            rmoveto
            -6 -75 rlineto
            644.0200042724609 126 callgsubr
            -60 callsubr
            return
          </CharString>
          <CharString index="50">
            -26.009994506835938 return
          </CharString>
          <CharString index="51">
            rmoveto
            -128 -997.9900054931641 rlineto
            120 callgsubr
            hlineto
            89 710.9799957275391 rlineto
            193 76 153 93 202 callsubr
            hhcurveto
            46.02000427246094 100 callgsubr
            -4 -10 19 hvcurveto
            154 callsubr
            63 callgsubr
            rlineto
            11 -13 -26 callsubr
            2 -79 callsubr
            hhcurveto
            hintmask 10100000
            -190 117 callsubr
            -181 -106 -46.02000427246094 hvcurveto
            12 86 13 179.02000427246094 -36 180 callgsubr
            268 callgsubr
            -40 callgsubr
            49 callgsubr
            441 callgsubr
            hintmask 11000000
            102.00999450683594 -46 rlineto
            return
          </CharString>
          <CharString index="52">
            494 -20.990005493164062 104.97999572753906 -99.97999572753906 284 callsubr
            892.4900054931641 91.47999572753906 hstemhm
            1228.490005493164 120 callgsubr
            hintmask 10110000
            1373 201.99000549316406 rmoveto
            6.9900054931640625 932.9900054931641 rlineto
            -181 hlineto
            -361.99000549316406 -751.9900054931641 -8 callgsubr
            -181 -29 181 79 callgsubr
            751.9900054931641 rlineto
            -388.02000427246094 90 callsubr
            182 -23 rlineto
            hintmask 01110000
            -32 -141 -82 -446 -132 173 callsubr
            347 callsubr
            -1 -96.99000549316406 24 -17 11 13 callsubr
            -175 rcurveline
            -20 callsubr
            4 60 -16.970001220703125 21.990005493164062 hhcurveto
            110 41 44.99000549316406 75 callsubr
            74 callsubr
            hvcurveto
            61 130 62 221 52 245 71 331 rcurveline
            57 -267 182 -775.9900054931641 rlineto
            64 hlineto
            373 765.9700012207031 128.97999572753906 291 -22 callsubr
            -291.97999572753906 rlineto
            hintmask 10110000
            -22 callsubr
            -639.0200042724609 rlineto
            -97 -10 callsubr
            43 -34.970001220703125 80 hhcurveto
            return
          </CharString>
          <CharString index="53">
            382 callgsubr
            98.02000427246094 10 70 hhcurveto
            330 129 -158 -377 6 hvcurveto
            4 -404.99000549316406 -187 -403 -400 -22 rrcurveto
            14 callgsubr
            -129.99000549316406 12 78 callsubr
            -82 hvcurveto
            63 callgsubr
            1319.020004272461 rlineto
            return
          </CharString>
          <CharString index="54">
            77 callsubr
            hstemhm
            1050.990005493164 159 hintmask 11011000
            34 69 43 callgsubr
            466 callgsubr
            493 callsubr
            214 393.00999450683594 221 callsubr
            hvcurveto
            264.99000549316406 -4.0099945068359375 -164 123 -289 -105 -89 -17 -107.99000549316406 hhcurveto
            hintmask 11101000
            -227 -71 callgsubr
            134.99000549316406 364 callsubr
            rlineto
            hintmask 11011000
            394 callgsubr
            569 571 rmoveto
            -61 -80 6.9799957275390625 113 callsubr
            -29 callgsubr
            hvcurveto
            -36 callgsubr
            766 86 callgsubr
            10 70 callsubr
            -8 callsubr
            63 256 callsubr
            rlinecurve
            242 6 82 349 callgsubr
            -2 -201.02000427246094 -4 154 callgsubr
            -143 -170 -301 -39 callsubr
            rrcurveto
            endchar
          </CharString>
          <CharString index="55">
            -7 -69 rlineto
            454 hlineto
            7 -78 callgsubr
            327 callsubr
            414 callgsubr
            176 hlineto
            144 219 -704.9799957275391 75 callgsubr
            hhcurveto
            193 266 callsubr
            105 callgsubr
            92 callgsubr
            23 203 callgsubr
            27 -205.99000549316406 553 -159 95 rlinecurve
            527.0099945068359 641.9900054931641 52 callgsubr
            8 callsubr
            113 callsubr
            80 rlineto
            -442.02000427246094 hlineto
            -10 -80 284 callsubr
            -24 -501.99000549316406 -626.0099945068359 rlineto
            -201 hlineto
            return
          </CharString>
          <CharString index="56">
            39.02000427246094 return
          </CharString>
          <CharString index="57">
            220.99000549316406 return
          </CharString>
          <CharString index="58">
            hvcurveto
            -81 callgsubr
            return
          </CharString>
          <CharString index="59">
            163 133 109.99000549316406 106 85.02000427246094 return
          </CharString>
          <CharString index="60">
            -19.990005493164062 return
          </CharString>
          <CharString index="61">
            -68 callgsubr
            261 hlineto
            return
          </CharString>
          <CharString index="62">
            135.99000549316406 return
          </CharString>
          <CharString index="63">
            434 callgsubr
            -1 39 305 callsubr
            53 57 callgsubr
            return
          </CharString>
          <CharString index="64">
            -46 -44 -42 -28 -33 hhcurveto
            -26 callsubr
            -16 24 39 318 callsubr
            hvcurveto
            -186.99000549316406 418 449.99000549316406 585.0099945068359 rlineto
            -163 hlineto
            -332 -462.00999450683594 -110 366 rlineto
            66 -47 callsubr
            -30 -22 callgsubr
            175 callgsubr
            hhcurveto
            -104 -82 -93 -23 367 callgsubr
            100 callgsubr
            -46 rlineto
            22 15.020004272460938 44.99000549316406 34.02000427246094 40 hhcurveto
            41 15.020004272460938 -25 -37 328 callsubr
            hvcurveto
            return
          </CharString>
          <CharString index="65">
            -74 -592 rlineto
            -725.0200042724609 hlineto
            75 592 -27 callsubr
            return
          </CharString>
          <CharString index="66">
            -72.00999450683594 return
          </CharString>
          <CharString index="67">
            94.99000549316406 return
          </CharString>
          <CharString index="68">
            -2.9900054931640625 return
          </CharString>
          <CharString index="69">
            -28 callsubr
            -58 hhcurveto
            -58 -52 259 callgsubr
            return
          </CharString>
          <CharString index="70">
            6 -78 callgsubr
            return
          </CharString>
          <CharString index="71">
            -87 -11 60 callgsubr
            170 callgsubr
            15.020004272460938 395 callgsubr
            -38 -39 -33 -16 -57 callsubr
            hhcurveto
            -17 -16 24 48 5 hvcurveto
            110 437 callsubr
            -136 hlineto
            -6 -39 -35 -286 -26 callsubr
            -262 -1 1 rcurveline
            return
          </CharString>
          <CharString index="72">
            54.99000549316406 return
          </CharString>
          <CharString index="73">
            -18.990005493164062 return
          </CharString>
          <CharString index="74">
            995.9799957275391 1039.990005493164 rmoveto
            -1 callgsubr
            -92 hhcurveto
            47 callgsubr
            217 callsubr
            28 -13 6 -40 -134 rcurveline
            28 -8 69 -7 65 1 192 2 122 173 33 264.00999450683594 143 1113.979995727539 rcurveline
            return
          </CharString>
          <CharString index="75">
            -13.990005493164062 return
          </CharString>
          <CharString index="76">
            7.9900054931640625 return
          </CharString>
          <CharString index="77">
            27 callgsubr
            105.97999572753906 210 callgsubr
            return
          </CharString>
          <CharString index="78">
            -56.02000427246094 return
          </CharString>
          <CharString index="79">
            -17 callgsubr
            62 callsubr
            return
          </CharString>
          <CharString index="80">
            150.02000427246094 -2 callgsubr
            -436 -89 callgsubr
            return
          </CharString>
          <CharString index="81">
            -31.990005493164062 return
          </CharString>
          <CharString index="82">
            -63 callgsubr
            111.99000549316406 32 150.02000427246094 435 callsubr
            222 -85.02000427246094 74.02000427246094 -141 -172 -171 -138.02000427246094 -154.99000549316406 -109 vhcurveto
            return
          </CharString>
          <CharString index="83">
            152 34 196 133 268 vvcurveto
            177.99000549316406 -150 111 -282.00999450683594 -147.99000549316406 -148 -62 -5 -83.99000549316406 vhcurveto
            136 callsubr
            -301.02000427246094 rlineto
            89 hlineto
            40 190 rlineto
            47 42 109 -22 callgsubr
            133 hhcurveto
            171 94 -77 -146 -260 -199 -120 -157 hvcurveto
            -150 hlineto
            -11 106 callgsubr
            177.99000549316406 -68 callsubr
            rlineto
            return
          </CharString>
          <CharString index="84">
            57 70 1 -37 callgsubr
            return
          </CharString>
          <CharString index="85">
            -14.990005493164062 return
          </CharString>
          <CharString index="86">
            rmoveto
            -23 callgsubr
            -435 -47 -577 -67.99000549316406 292 callsubr
            -181.97999572753906 14 callsubr
            68 callsubr
            671.0099945068359 174.02000427246094 18 rcurveline
            7.9900054931640625 356 callgsubr
          </CharString>
          <CharString index="87">
            -9.009994506835938 return
          </CharString>
          <CharString index="88">
            rmoveto
            53 callsubr
            -90 callgsubr
            hvcurveto
            hintmask 01111000
            -86 callsubr
            hintmask 10111000
            -87 callgsubr
            -253 198 rmoveto
            hintmask 01111000
            -92 callsubr
            hintmask 10111000
            297 callsubr
          </CharString>
          <CharString index="89">
            -7 -69 rlineto
            224 hlineto
            56 109 -5 -4 45 hvcurveto
            31 -3 54 -39 callsubr
            28 -1 470 -12 316.00999450683594 420.99000549316406 -7 529 rrcurveto
            371 -4 -164 245 -407 hhcurveto
            return
          </CharString>
          <CharString index="90">
            738 445 callgsubr
            rmoveto
            -36 callsubr
            -35 -66 -91 -18 121 callgsubr
            hhcurveto
            294 callsubr
            -15 callgsubr
            358 callsubr
            return
          </CharString>
          <CharString index="91">
            39 callgsubr
            -58 -54 -69 -2 hvcurveto
            return
          </CharString>
          <CharString index="92">
            291.97999572753906 1039.990005493164 rmoveto
            -46 callsubr
            12 115 rlineto
            -259.00999450683594 411 callgsubr
            74.02000427246094 117 76 callgsubr
            1 rlinecurve
            -42 callgsubr
            140 hlineto
            return
          </CharString>
          <CharString index="93">
            hlineto
            67.02000427246094 502.99000549316406 -44.02000427246094 22 -204.99000549316406 369 callsubr
            -41 callsubr
            return
          </CharString>
          <CharString index="94">
            156.99000549316406 return
          </CharString>
          <CharString index="95">
            -7.9900054931640625 return
          </CharString>
          <CharString index="96">
            26.009994506835938 return
          </CharString>
          <CharString index="97">
            0.9900054931640625 return
          </CharString>
          <CharString index="98">
            193 callsubr
            -59 callgsubr
            -56 -25 callgsubr
            14 callgsubr
            -2 hvcurveto
            478 callgsubr
            38.99000549316406 -41 49 338 callsubr
            return
          </CharString>
          <CharString index="99">
            9.009994506835938 return
          </CharString>
          <CharString index="100">
            rmoveto
            -24 22 54 -13 64 hhcurveto
            229 3 callsubr
            177 342.97999572753906 41 hvcurveto
            134 1136 61 callgsubr
            -256 -41.99000549316406 -13 484 callgsubr
            -109 372 callgsubr
            -31 16 callsubr
            -227 -202.02000427246094 hhcurveto
            -28 -41 -68 callsubr
            -84 callgsubr
            -18 hvcurveto
            -28 -65.99000549316406 rlineto
            endchar
          </CharString>
          <CharString index="101">
            -33.02000427246094 return
          </CharString>
          <CharString index="102">
            154.99000549316406 return
          </CharString>
          <CharString index="103">
            -126.02000427246094 rrcurveto
            -87.97999572753906 -7 return
          </CharString>
          <CharString index="104">
            -76 429 callgsubr
            512.010009765625 94 return
          </CharString>
          <CharString index="105">
            19.990005493164062 return
          </CharString>
          <CharString index="106">
            128 callgsubr
            879.989990234375 -13 callsubr
            return
          </CharString>
          <CharString index="107">
            -167 -1328 return
          </CharString>
          <CharString index="108">
            90.99000549316406 return
          </CharString>
          <CharString index="109">
            -250 119 callsubr
            -182 224.99000549316406 147 121 91.99000549316406 88 67.99000549316406 return
          </CharString>
          <CharString index="110">
            153.99000549316406 return
          </CharString>
          <CharString index="111">
            75 556 rlineto
            -146 hlineto
            -74 -549.0099945068359 -13 -93.97999572753906 -16 258 callgsubr
            -5 -87 rlinecurve
            -110 164 callsubr
            -140 -116 -112 hhcurveto
            -94.99000549316406 -63 33 156.02000427246094 105.99000549316406 22 133 11 415 callgsubr
            hvcurveto
            68 542.9900054931641 13 callsubr
            382 callsubr
            -43 37 callgsubr
            -55 -396 rlineto
            -10 -70.99000549316406 -57 callsubr
            -189 -92 vvcurveto
            -210 95 -64 149 171 135 372 callsubr
            111 81 vhcurveto
            -181 10 93 -25 callgsubr
            140 hhcurveto
            158 127 75 callgsubr
            391 callgsubr
            83 hvcurveto
            return
          </CharString>
          <CharString index="112">
            -17 201 callsubr
            546.0200042724609 143 callgsubr
            719.9900054931641 95 return
          </CharString>
          <CharString index="113">
            -134 -1001.9799957275391 373 callgsubr
            99 744.9799957275391 rlineto
            return
          </CharString>
          <CharString index="114">
            -50 callsubr
            hstemhm
            return
          </CharString>
          <CharString index="115">
            22.020004272460938 return
          </CharString>
          <CharString index="116">
            rmoveto
            367 386 callsubr
            245 -313 -275 105 callsubr
            -74 -5 -111 vhcurveto
            -47 -290 rlineto
            82 hlineto
            59 174 rlineto
            46 57 126 59 188 hhcurveto
            217 170 -183 -348 -51 -2 -49 -4 -46 hvcurveto
            -964.0200042724609 -2 rlineto
            -20.990005493164062 -58 -18 451 callgsubr
            vvcurveto
            -319 3 callsubr
            -182.97999572753906 267.02000427246094 396 337 398.99000549316406 549.9900054931641 vhcurveto
            -162.02000427246094 -244 rmoveto
            -403.99000549316406 -58.99000549316406 -215 -209 -248 hhcurveto
            -215 -111 190 193 82 14 158 callgsubr
            17 68 hvcurveto
            816.9900054931641 1 rlineto
            endchar
          </CharString>
          <CharString index="117">
            -84 callgsubr
            81 rlineto
            return
          </CharString>
          <CharString index="118">
            152 callgsubr
            38 89 callgsubr
            return
          </CharString>
          <CharString index="119">
            462 callsubr
            32 callsubr
            return
          </CharString>
          <CharString index="120">
            -37.99000549316406 return
          </CharString>
          <CharString index="121">
            -47 28 21 callgsubr
            return
          </CharString>
          <CharString index="122">
            -0.9900054931640625 return
          </CharString>
          <CharString index="123">
            -72.99000549316406 return
          </CharString>
          <CharString index="124">
            -205 -40 callgsubr
            return
          </CharString>
          <CharString index="125">
            rrcurveto
            179 callsubr
            235.99000549316406 180 280 222 vvcurveto
            112 13 callsubr
            68 -68 -42 -36 -23 -59 vhcurveto
            -40 154 callsubr
            -37 -50 vvcurveto
            -235.99000549316406 -176.99000549316406 -261.02000427246094 -127 -168 vhcurveto
            -119 447 callgsubr
            -29 179 -145 718.0099945068359 rlineto
            81 -18 49 callgsubr
            56 282 callsubr
            hhcurveto
            -96.00999450683594 -82 -96.00999450683594 -83 callsubr
            -22 callsubr
            hvcurveto
            23 -50 rlineto
            43 42 24 14 -7 callgsubr
            hhcurveto
            22 12 46 callgsubr
            -56 131 callgsubr
            hvcurveto
            return
          </CharString>
          <CharString index="126">
            265 callgsubr
            45 -46 348 295 483 callsubr
            57 153 callgsubr
            -135.99000549316406 440 callgsubr
            return
          </CharString>
          <CharString index="127">
            302 289 268.97999572753906 441 322 -182 163 -274.97999572753906 48 callgsubr
            -162 -47 callsubr
            -30 -62.02000427246094 hvcurveto
            -26 callsubr
            -259.00999450683594 rlineto
            78 hlineto
            58 168 rlineto
            34 47 -70 callsubr
            17.020004272460938 91 hhcurveto
            181 131 callsubr
            -127.02000427246094 -272 hvcurveto
            -12 -1 -12 -11 vvcurveto
            -551.0099945068359 hlineto
            25 -120 95 4 232 5 189.99000549316406 16 rlinecurve
            -248 -35 113 callgsubr
            -234 -250 hhcurveto
            -104 -82 24 29 -59 hvcurveto
            -1 166 rlineto
            -86 hlineto
            return
          </CharString>
          <CharString index="128">
            -36 callgsubr
            70 -77.97999572753906 210 hhcurveto
            426 365 382.99000549316406 529 387.99000549316406 -210.99000549316406 261 -362 -252 -83 -74 -5 -103 hvcurveto
            -19 callgsubr
            -306.02000427246094 rlineto
            99.99000549316406 hlineto
            58 191.02000427246094 rlineto
            284 callgsubr
            178 callgsubr
            136 callgsubr
            57.02000427246094 170 hhcurveto
            293.99000549316406 131 -255.02000427246094 -308 hvcurveto
            -22 callsubr
            -1 -15 46 callgsubr
            vvcurveto
            -683.9900054931641 131 callgsubr
            rlineto
            endchar
          </CharString>
          <CharString index="129">
            110 callgsubr
            443 callsubr
            24 vhcurveto
            -98 24 callsubr
            return
          </CharString>
          <CharString index="130">
            hhcurveto
            405.00999450683594 228 440.99000549316406 309 250 258 callgsubr
            183 -231 222 callgsubr
            -122 -99 174 callsubr
            -65 hvcurveto
            88 654.0099945068359 -41 23 -204 -32 -16 -68 -66 callsubr
            -34 rlineto
            58 -683.0099945068359 rmoveto
            236 callgsubr
            51 130 128.99000549316406 150 hhcurveto
            133 75 -122 268 callgsubr
            -258.00999450683594 -145.97999572753906 -383 -307.02000427246094 -65.99000549316406 -8 callgsubr
            13 39 -48 hvcurveto
            95 703 rlineto
            endchar
          </CharString>
          <CharString index="131">
            -80 rlineto
            70 callgsubr
            vlineto
            42 -15 30 146 callsubr
            return
          </CharString>
          <CharString index="132">
            hlineto
            hintmask 01101100
            300 callgsubr
            -635 -150 -25 rlineto
            hintmask 10101100
            -7 -69 rlineto
            224.02000427246094 hlineto
            164 callgsubr
            109 -4.9799957275390625 -4.0099945068359375 45.02000427246094 hvcurveto
            100 callgsubr
            -39 callsubr
            54 -3 28 -1 470 -12 316 421 -7 529 rrcurveto
            371 -4 -164 245 -407 hhcurveto
            hintmask 10110100
            121 callgsubr
            -93 46 callgsubr
            217 callsubr
            hvcurveto
            -264 hlineto
            -9 -81.02000427246094 -45 callsubr
            -34 callsubr
            -74 -588 rlineto
            hintmask 10101100
            return
          </CharString>
          <CharString index="133">
            33 callgsubr
            951.9900054931641 212 callgsubr
            return
          </CharString>
          <CharString index="134">
            -24 callgsubr
            -89 callsubr
            181 callgsubr
            384 callgsubr
            177 callgsubr
          </CharString>
          <CharString index="135">
            vstem
            465 callgsubr
            69 -96 callgsubr
            return
          </CharString>
          <CharString index="136">
            -31 -274 -62 -335 -64 -154 rrcurveto
            -65 -23 -57 callsubr
            -52.99000549316406 96 callsubr
            hhcurveto
            -27.020004272460938 -77 22 11 -16.979995727539062 hvcurveto
            -37 -174 rlineto
            -20 callsubr
            4.0200042724609375 56.970001220703125 -16.970001220703125 31.009994506835938 hhcurveto
            147 -76 callgsubr
            85.97000122070312 98.02000427246094 46 hvcurveto
            178 callgsubr
            134 157 callsubr
            338 30 256.97999572753906 78 callsubr
            136 rcurveline
            return
          </CharString>
          <CharString index="137">
            1905.990005493164 rmoveto
            -76 callgsubr
            106 callgsubr
            175 -134.99000549316406 1 callgsubr
            -55 51 37 rcurveline
            return
          </CharString>
          <CharString index="138">
            305 callsubr
            54 58 69 2 280 callgsubr
            -51.02000427246094 32 callsubr
            51 callsubr
            return
          </CharString>
          <CharString index="139">
            -58 47 callgsubr
            -69.02000427246094 return
          </CharString>
          <CharString index="140">
            -150 -83 callsubr
            return
          </CharString>
          <CharString index="141">
            171 callsubr
            646 158.99000549316406 return
          </CharString>
          <CharString index="142">
            -21 callgsubr
            970.989990234375 98.00999450683594 return
          </CharString>
          <CharString index="143">
            335 callsubr
            228 316 callgsubr
            135 hlineto
            233 callsubr
            return
          </CharString>
          <CharString index="144">
            1651 rmoveto
            50 210 callsubr
            175.97999572753906 184 callsubr
            return
          </CharString>
          <CharString index="145">
            255 187 callgsubr
            1365 -36 callgsubr
            return
          </CharString>
          <CharString index="146">
            1393.990005493164 4 rmoveto
            21.020004272460938 16 callsubr
            rlineto
            1008.9900054931641 hlineto
            93 352.99000549316406 -93 25 -117 -272.02000427246094 -728 -47 callsubr
            145.02000427246094 187.99000549316406 867 1179.009994506836 -79 callsubr
            69 rlineto
            -938 hlineto
            -56 -344 91 -19 101 callsubr
            265.00999450683594 663 6 -178 -213.02000427246094 -844 -1143.990005493164 rlineto
            return
          </CharString>
          <CharString index="147">
            -22 callgsubr
            170 callsubr
            1 -49 callsubr
            return
          </CharString>
          <CharString index="148">
            -43 callgsubr
            110 121 163 vvcurveto
            91 return
          </CharString>
          <CharString index="149">
            104 callgsubr
            -136 hlineto
            return
          </CharString>
          <CharString index="150">
            826 -884 rmoveto
            -86 -10 29 -50.99000549316406 75 callsubr
            hhcurveto
            110.02000427246094 257 callsubr
            104 -32 callgsubr
            79 callsubr
            hvcurveto
            -25 45 rlineto
            -52 -50 156 callsubr
            -34 callsubr
            -28 hhcurveto
            -47 callsubr
            -12 -72 callgsubr
            -8.990005493164062 164 callsubr
            -117 -923 -6 -36 rrcurveto
            return
          </CharString>
          <CharString index="151">
            rmoveto
            -238.99000549316406 -174.02000427246094 -213 -212 -176 95 -133.97999572753906 183 251.99000549316406 160 221 219 282 callgsubr
            177 callsubr
            123 -198 hvcurveto
            return
          </CharString>
          <CharString index="152">
            -50 callsubr
            hstem
            return
          </CharString>
          <CharString index="153">
            -32.99000549316406 return
          </CharString>
          <CharString index="154">
            -36.99000549316406 return
          </CharString>
          <CharString index="155">
            -4.0200042724609375 return
          </CharString>
          <CharString index="156">
            -15.990005493164062 return
          </CharString>
          <CharString index="157">
            151 49 callsubr
            0 callgsubr
            1000.9900054931641 88 hstem
            128 -13 callsubr
            717.989990234375 480 callgsubr
            128 449.99000549316406 rmoveto
            -252 116 -213.97000122070312 304.99000549316406 351 260 336.9700012207031 413 callsubr
            274 -109 191 -307 -335.00999450683594 -280.97999572753906 -309 -403 vhcurveto
            return
          </CharString>
          <CharString index="158">
            -86 callgsubr
            hvcurveto
            return
          </CharString>
          <CharString index="159">
            vstem
            460.97999572753906 371 callsubr
            rmoveto
            106 69 callgsubr
            462 callgsubr
            -118.00999450683594 -4.0099945068359375 46 callsubr
            rlineto
            82 -16 44 -87 92 callgsubr
            vvcurveto
            -168 -138 -161.02000427246094 -105 47 callsubr
            vhcurveto
            -1 -17 74 callsubr
            204 callsubr
            rlineto
            181 78 197 170 260.97999572753906 vvcurveto
            return
          </CharString>
          <CharString index="160">
            -35 -37 -57 callsubr
            -24 -28 hhcurveto
            return
          </CharString>
          <CharString index="161">
            -595.9900054931641 -60 153 callsubr
            -527.0099945068359 -182 19 callgsubr
            269.99000549316406 171 722.9799957275391 554 59 hvcurveto
            19 172 rlineto
            436.99000549316406 hlineto
            return
          </CharString>
          <CharString index="162">
            399 callsubr
            46 callgsubr
            478 callsubr
            509.00999450683594 hlineto
            16 120 callsubr
            rlineto
            -510 hlineto
            return
          </CharString>
          <CharString index="163">
            96 callsubr
            50 -76 callgsubr
            rcurveline
            -302 425 451 callgsubr
            rlineto
            return
          </CharString>
          <CharString index="164">
            -19 callgsubr
            122 68 return
          </CharString>
          <CharString index="165">
            140 hlineto
            -704 hmoveto
            -50 callgsubr
            return
          </CharString>
          <CharString index="166">
            -134 -997.9900054931641 373 callgsubr
            return
          </CharString>
          <CharString index="167">
            461 -7 4 -370 rlineto
            105 hlineto
            38 466 rlineto
            -921 hlineto
            -20 callsubr
            -79.02000427246094 174.02000427246094 -23 return
          </CharString>
          <CharString index="168">
            103.99000549316406 28 return
          </CharString>
          <CharString index="169">
            40.02000427246094 return
          </CharString>
          <CharString index="170">
            96.00999450683594 return
          </CharString>
          <CharString index="171">
            112 374.97999572753906 90 return
          </CharString>
          <CharString index="172">
            46 216 callsubr
            return
          </CharString>
          <CharString index="173">
            108.99000549316406 969.9799957275391 104.00999450683594 return
          </CharString>
          <CharString index="174">
            164.99000549316406 149 return
          </CharString>
          <CharString index="175">
            72.99000549316406 return
          </CharString>
          <CharString index="176">
            144 708.9900054931641 127 hstem
            238.97999572753906 846 vstem
            252.99000549316406 337 callsubr
            -14 -127 rlineto
            833 hlineto
            13 127 rlineto
            -832 hlineto
            endchar
          </CharString>
          <CharString index="177">
            96.99000549316406 return
          </CharString>
          <CharString index="178">
            -40.97999572753906 return
          </CharString>
          <CharString index="179">
            -52 234 callsubr
            -34 -34 callsubr
            -29 hhcurveto
            -19 -12 21 51 7 hvcurveto
            131 996 rlineto
            -148 hlineto
            -5 -37 -74 -578.9900054931641 -30 -227 rrcurveto
            -109 164 callsubr
            -137 -113.00999450683594 -111 hhcurveto
            -95 -64 33 156.02000427246094 105.99000549316406 18 94 180 callsubr
            120.00999450683594 hvcurveto
            return
          </CharString>
          <CharString index="180">
            16 -20 98 986.9799957275391 98.00999450683594 return
          </CharString>
          <CharString index="181">
            31.990005493164062 return
          </CharString>
          <CharString index="182">
            71.99000549316406 return
          </CharString>
          <CharString index="183">
            -525 rmoveto
            181 -1052.979995727539 rlineto
            70 hlineto
            -228 -113.00999450683594 -151 -81 225 callsubr
            hhcurveto
            -95.99000549316406 -50 30 9 -21 hvcurveto
            -36 -127 rlineto
            -13 40 76 -16 57 hhcurveto
            183.99000549316406 106 callsubr
            106 70 218 callgsubr
            82 98 123 193.99000549316406 159 327 rrcurveto
            return
          </CharString>
          <CharString index="184">
            96 0 69 474.97999572753906 63 callsubr
            783.0000152587891 99 -79.02000427246094 63 callsubr
            return
          </CharString>
          <CharString index="185">
            14.990005493164062 return
          </CharString>
          <CharString index="186">
            16.020004272460938 return
          </CharString>
          <CharString index="187">
            490 callsubr
            221 callsubr
            46 callsubr
            -35 213 callgsubr
            hvcurveto
            -128 -15 -63 -76 -156 hhcurveto
            -152 -61 56 101 22 4.0200042724609375 27 -10 callsubr
            23 hvcurveto
            8 callsubr
            -39 callsubr
            -63 callgsubr
            -18 vhcurveto
            237 callsubr
            hlineto
            -8 -24 0 -22 -23 vvcurveto
            return
          </CharString>
          <CharString index="188">
            159 callsubr
            -76 callgsubr
            -48.99000549316406 122 68 222 374 callsubr
            return
          </CharString>
          <CharString index="189">
            270.99000549316406 997.9900054931641 232 callgsubr
            return
          </CharString>
          <CharString index="190">
            140 callgsubr
            511.99998474121094 154 return
          </CharString>
          <CharString index="191">
            hhcurveto
            -20 callgsubr
            return
          </CharString>
          <CharString index="192">
            -652 rmoveto
            -115 -55 94 135 71 callgsubr
            91 198 171 113.00999450683594 60 callgsubr
            -87 -132 -142 -80 -209 -173 hvcurveto
            return
          </CharString>
          <CharString index="193">
            -926 1352 102 callgsubr
          </CharString>
          <CharString index="194">
            1675 rmoveto
            60 callgsubr
            127 callsubr
            242 241 callsubr
            return
          </CharString>
          <CharString index="195">
            hstemhm
            179.49000549316406 235.99000549316406 505.49998474121094 192 callgsubr
            return
          </CharString>
          <CharString index="196">
            68 callgsubr
            -29 callsubr
            return
          </CharString>
          <CharString index="197">
            -75 callgsubr
            -80 return
          </CharString>
          <CharString index="198">
            84.99000549316406 return
          </CharString>
          <CharString index="199">
            155.99000549316406 return
          </CharString>
          <CharString index="200">
            371 callgsubr
            4 93 -79 -118 vvcurveto
            -166.99000549316406 -123 -117 -244 174 callsubr
            -71 12 44 -63 vhcurveto
            -87 1 callsubr
            return
          </CharString>
          <CharString index="201">
            125 callsubr
            448 callsubr
            241 callsubr
            return
          </CharString>
          <CharString index="202">
            -21 callgsubr
            970 99 return
          </CharString>
          <CharString index="203">
            -59.99000549316406 return
          </CharString>
          <CharString index="204">
            468.00999450683594 1356 rmoveto
            8.990005493164062 377 callgsubr
            -404.99000549316406 425 callgsubr
            78 callsubr
            -82 hvcurveto
            166 1319.020004272461 rlineto
            endchar
          </CharString>
          <CharString index="205">
            696 -20 -70 callsubr
            92 callgsubr
            -13 callgsubr
            448.989990234375 81 396 120.00999450683594 175 callgsubr
            90 return
          </CharString>
          <CharString index="206">
            -12 callsubr
            -69 rlineto
            return
          </CharString>
          <CharString index="207">
            36.99000549316406 return
          </CharString>
          <CharString index="208">
            85.00999450683594 return
          </CharString>
          <CharString index="209">
            vstem
            100 callsubr
            69 167 callgsubr
            454 hlineto
            6 69 -156 492 callgsubr
            1327 rlineto
            670.9900054931641 hlineto
            -166.99000549316406 -1328 -148 359 callsubr
            458 hlineto
            6 69 -159 -7 callgsubr
            return
          </CharString>
          <CharString index="210">
            0 202 callgsubr
            589 95 665.510009765625 -73 callgsubr
            -79.02000427246094 95 return
          </CharString>
          <CharString index="211">
            43.99000549316406 return
          </CharString>
          <CharString index="212">
            -118.99000549316406 return
          </CharString>
          <CharString index="213">
            114.00999450683594 return
          </CharString>
          <CharString index="214">
            hlineto
            -99.99000549316406 -17 -75 -127.02000427246094 -156 hhcurveto
            return
          </CharString>
          <CharString index="215">
            -289.02000427246094 -224.99000549316406 -269 225 callgsubr
            -57 hvcurveto
            -116 113 callsubr
            234 callsubr
            -5 callgsubr
            61 vvcurveto
            100 callsubr
            24 77 19 19 vhcurveto
            -130 24 rlineto
            -22 -14 -31 -88 -54 vvcurveto
            -140 131 -63 164 -11 vhcurveto
            return
          </CharString>
          <CharString index="216">
            38 callsubr
            hstem
            -1 callsubr
            vstem
            return
          </CharString>
          <CharString index="217">
            482 callgsubr
            509.00999450683594 hlineto
            16 235 callsubr
            rlineto
            return
          </CharString>
          <CharString index="218">
            178.989990234375 45 callsubr
            return
          </CharString>
          <CharString index="219">
            73.00999450683594 return
          </CharString>
          <CharString index="220">
            10.020004272460938 return
          </CharString>
          <CharString index="221">
            113 718.510009765625 -73 callgsubr
            hstem
            161.91000366210938 156.9600067138672 vstem
            return
          </CharString>
          <CharString index="222">
            -59 callsubr
            -156 24 return
          </CharString>
          <CharString index="223">
            rlineto
            -97 -79 callsubr
            37 -60 -70 callsubr
            hhcurveto
            -13 callgsubr
            110.02000427246094 116 29 17 hvcurveto
            -25 104 callsubr
            rlineto
            -23 callgsubr
            -51 414 callsubr
            -34 -45 hhcurveto
            13 callsubr
            269 callgsubr
            33 57 13 hvcurveto
            return
          </CharString>
          <CharString index="224">
            -153.99000549316406 return
          </CharString>
          <CharString index="225">
            200.99000549316406 return
          </CharString>
          <CharString index="226">
            107.00999450683594 return
          </CharString>
          <CharString index="227">
            118.99000549316406 return
          </CharString>
          <CharString index="228">
            -71.99000549316406 return
          </CharString>
          <CharString index="229">
            208 callgsubr
            -51 callsubr
            -41 47 84 callsubr
            431 callgsubr
            -10 callsubr
            288 callgsubr
            return
          </CharString>
          <CharString index="230">
            -41 49 hhcurveto
            61 52.99000549316406 58 70 2 -16 callsubr
            return
          </CharString>
          <CharString index="231">
            176.97999572753906 342 220 -156 128 -291 return
          </CharString>
          <CharString index="232">
            1675 rmoveto
            48 127 callsubr
            return
          </CharString>
          <CharString index="233">
            rmoveto
            -6 -12 callgsubr
            return
          </CharString>
          <CharString index="234">
            -47 337 253.99000549316406 return
          </CharString>
          <CharString index="235">
            -392.00999450683594 rlineto
            return
          </CharString>
          <CharString index="236">
            78.00999450683594 return
          </CharString>
          <CharString index="237">
            28.020004272460938 return
          </CharString>
          <CharString index="238">
            138.02000427246094 return
          </CharString>
          <CharString index="239">
            -7 -69 rlineto
            224.02000427246094 hlineto
            164 callgsubr
            109 -5 -4 45.02000427246094 hvcurveto
            100 callgsubr
            -3 54 -39 callsubr
            28 -1 470 -12 316 420.99000549316406 -7 529 rrcurveto
            371 -4 -164 245 -407 hhcurveto
            return
          </CharString>
          <CharString index="240">
            167 callgsubr
            1032.009994506836 hlineto
            0 callgsubr
            315.97999572753906 -81 25 -111 -228 -621 -19 91 callsubr
            640 482.02000427246094 -28 callgsubr
            -84 callgsubr
            124.99000549316406 -481 -6 76 595 return
          </CharString>
          <CharString index="241">
            rmoveto
            380 callsubr
            -8 436 callsubr
            247 callgsubr
            11 hvcurveto
            60 return
          </CharString>
          <CharString index="242">
            -39.02000427246094 return
          </CharString>
          <CharString index="243">
            -21.020004272460938 return
          </CharString>
          <CharString index="244">
            59 callsubr
            70.99000549316406 537.9900054931641 rlineto
            return
          </CharString>
          <CharString index="245">
            vstem
            249 callsubr
            339 callgsubr
            return
          </CharString>
          <CharString index="246">
            74 -22 3 callsubr
            1300.009994506836 -70 callsubr
            return
          </CharString>
          <CharString index="247">
            92 callgsubr
            18 48 callgsubr
            return
          </CharString>
          <CharString index="248">
            -29 callsubr
            -86 callgsubr
            return
          </CharString>
          <CharString index="249">
            -35 186 callgsubr
            return
          </CharString>
          <CharString index="250">
            42.99000549316406 return
          </CharString>
          <CharString index="251">
            506 callgsubr
            -43 -41.99000549316406 53 callgsubr
            22 -35 callsubr
            -12 53 hhcurveto
            149.02000427246094 202 callsubr
            -36 callgsubr
            227 return
          </CharString>
          <CharString index="252">
            30 rlineto
            -81 hlineto
            -1 -5 0 -89 callsubr
            -6 vvcurveto
            return
          </CharString>
          <CharString index="253">
            -29 callgsubr
            -55 vvcurveto
            -82 return
          </CharString>
          <CharString index="254">
            rmoveto
            -7 callgsubr
            -135 112 5 334 6 205.99000549316406 25.009994506835938 rlinecurve
            -424 -40 callgsubr
            -251 -262 -282.00999450683594 hhcurveto
            -180 -69 -20 callgsubr
            154 callsubr
            -47 hvcurveto
            return
          </CharString>
          <CharString index="255">
            -25 callgsubr
            96 callsubr
            -79 callsubr
            vhcurveto
            143 callsubr
            -51 rlineto
            111 -11 callsubr
            return
          </CharString>
          <CharString index="256">
            -239 168 callsubr
            return
          </CharString>
          <CharString index="257">
            1940.990005493164 rmoveto
            -196 -7 165 -87 return
          </CharString>
          <CharString index="258">
            296 callgsubr
            121 callsubr
            hhcurveto
            return
          </CharString>
          <CharString index="259">
            hstem
            877.9900054931641 255 callsubr
            vstem
            return
          </CharString>
          <CharString index="260">
            -159.99000549316406 return
          </CharString>
          <CharString index="261">
            32.99000549316406 return
          </CharString>
          <CharString index="262">
            -21.009994506835938 return
          </CharString>
          <CharString index="263">
            -34.02000427246094 return
          </CharString>
          <CharString index="264">
            66.99000549316406 return
          </CharString>
          <CharString index="265">
            150 callsubr
            199 hhcurveto
            118 callsubr
            return
          </CharString>
          <CharString index="266">
            1303.979995727539 rmoveto
            return
          </CharString>
          <CharString index="267">
            1291.979995727539 rmoveto
            64 -35 13 callgsubr
            68.00999450683594 162 236 callsubr
            38 102.02000427246094 rlinecurve
            -111 91 callsubr
            -237 -415 rlineto
            416.99000549316406 8 rmoveto
            69 -36 return
          </CharString>
          <CharString index="268">
            73 callsubr
            hstem
            34 callsubr
            vstem
            return
          </CharString>
          <CharString index="269">
            -16 -44 callgsubr
            hhcurveto
            -17 -12 24 48 6 hvcurveto
            return
          </CharString>
          <CharString index="270">
            191 callgsubr
            61 return
          </CharString>
          <CharString index="271">
            -73.00999450683594 return
          </CharString>
          <CharString index="272">
            83 callgsubr
            394 callgsubr
            endchar
          </CharString>
          <CharString index="273">
            -463.99000549316406 58 callgsubr
            return
          </CharString>
          <CharString index="274">
            191 callgsubr
            178 callgsubr
            310 callgsubr
            return
          </CharString>
          <CharString index="275">
            83 callgsubr
            rlineto
            return
          </CharString>
          <CharString index="276">
            hstemhm
            798.9799957275391 158 -45.989990234375 153 return
          </CharString>
          <CharString index="277">
            264 callgsubr
            53 57 70 return
          </CharString>
          <CharString index="278">
            87 -13 callsubr
            return
          </CharString>
          <CharString index="279">
            -113.99000549316406 return
          </CharString>
          <CharString index="280">
            -293.99000549316406 return
          </CharString>
          <CharString index="281">
            -91.02000427246094 return
          </CharString>
          <CharString index="282">
            -1 111 4 -145 154 hhcurveto
            105.99000549316406 97.00999450683594 422 callsubr
            -31 -23 callgsubr
            -74 -80 -98 -32 146 -129 hhcurveto
            return
          </CharString>
          <CharString index="283">
            rmoveto
            -76 hlineto
            -84.99000549316406 -331 rlineto
            -29 64 -45 callsubr
            -19 callgsubr
            198 hhcurveto
            357 295 198 319 63 callgsubr
            -106 137 -241.99000549316406 6 hvcurveto
            return
          </CharString>
          <CharString index="284">
            -79.00999450683594 return
          </CharString>
          <CharString index="285">
            76.99000549316406 return
          </CharString>
          <CharString index="286">
            182.99000549316406 return
          </CharString>
          <CharString index="287">
            15.009994506835938 return
          </CharString>
          <CharString index="288">
            -34 callgsubr
            26 2 -7 callgsubr
            268 callsubr
            vvcurveto
            return
          </CharString>
          <CharString index="289">
            747 216 callsubr
            return
          </CharString>
          <CharString index="290">
            394 callsubr
            63 52 57 69 return
          </CharString>
          <CharString index="291">
            132 55 200 callsubr
            return
          </CharString>
          <CharString index="292">
            hstemhm
            67 callsubr
            return
          </CharString>
          <CharString index="293">
            48 callsubr
            hvcurveto
            return
          </CharString>
          <CharString index="294">
            1491 474 callgsubr
            -69 -66 callsubr
            1331.009994506836 -40 callsubr
            -90.5 254 callgsubr
            return
          </CharString>
          <CharString index="295">
            -25 44 rlineto
            -38 -40 -32.02000427246094 162 callsubr
            -13 callgsubr
            437 callsubr
            -802 90 callsubr
            185 -23 rlineto
            return
          </CharString>
          <CharString index="296">
            -41 47 84 callsubr
            431 callgsubr
            1 hvcurveto
            -35 callsubr
            1 -35 41 return
          </CharString>
          <CharString index="297">
            -513 115 378 105 954.9900054931641 115 return
          </CharString>
          <CharString index="298">
            -119.99000549316406 return
          </CharString>
          <CharString index="299">
            -66.00999450683594 return
          </CharString>
          <CharString index="300">
            218.99000549316406 return
          </CharString>
          <CharString index="301">
            341 callgsubr
            41.99000549316406 -15 30 146 callsubr
            69 callgsubr
            -76 -49 260 callgsubr
          </CharString>
          <CharString index="302">
            hstem
            -1 callsubr
            vstem
            449 callgsubr
            return
          </CharString>
          <CharString index="303">
            -41.99000549316406 23 -226.02000427246094 491 callsubr
            115.02000427246094 -33 return
          </CharString>
          <CharString index="304">
            478 callgsubr
            111 callgsubr
            return
          </CharString>
          <CharString index="305">
            113 callgsubr
            48 callgsubr
            return
          </CharString>
          <CharString index="306">
            -416.00999450683594 103.00999450683594 return
          </CharString>
          <CharString index="307">
            105 rlinecurve
            -95 94 -283 -349 rlineto
            return
          </CharString>
          <CharString index="308">
            93.97999572753906 return
          </CharString>
          <CharString index="309">
            117.99000549316406 return
          </CharString>
          <CharString index="310">
            137.99000549316406 return
          </CharString>
          <CharString index="311">
            -57.02000427246094 return
          </CharString>
          <CharString index="312">
            1952.990005493164 rmoveto
            222 -331 rlineto
            134 hlineto
            308 332 -19 callgsubr
            46 225 callgsubr
            -265.00999450683594 -234 265.00999450683594 -58 -47 rlineto
            return
          </CharString>
          <CharString index="313">
            64 319 callsubr
            570 82 -52 78 575.010009765625 77 hstemhm
            -51 callgsubr
            346 callgsubr
            429.99998474121094 130 149 130 423 137 return
          </CharString>
          <CharString index="314">
            0 -58 callgsubr
            hstem
            return
          </CharString>
          <CharString index="315">
            105 36 -41 113 callgsubr
            return
          </CharString>
          <CharString index="316">
            266 callgsubr
            -2 return
          </CharString>
          <CharString index="317">
            -37 1 callgsubr
            55 return
          </CharString>
          <CharString index="318">
            419 3 rmoveto
            -59 return
          </CharString>
          <CharString index="319">
            294.00999450683594 return
          </CharString>
          <CharString index="320">
            159 callsubr
            -76 callgsubr
            12 callgsubr
            -108 407 callgsubr
            return
          </CharString>
          <CharString index="321">
            11 1 490 callsubr
            -7 46 callsubr
            -35 -5 hvcurveto
            -128 -22 callsubr
            -63 -76 327 callsubr
            hhcurveto
            -151.97999572753906 -61 56 101 22 return
          </CharString>
          <CharString index="322">
            -70 rlineto
            58 69 104 51 111 hhcurveto
            162 -11 callsubr
            return
          </CharString>
          <CharString index="323">
            0 202 callgsubr
            1349.510009765625 -73 callgsubr
            return
          </CharString>
          <CharString index="324">
            15 callsubr
            -94 return
          </CharString>
          <CharString index="325">
            209 callsubr
            39 303 callsubr
            -52 -55 -69 -1 hvcurveto
            return
          </CharString>
          <CharString index="326">
            hstem
            118 callsubr
            119 callgsubr
            469.00999450683594 119 callgsubr
            vstem
            return
          </CharString>
          <CharString index="327">
            hstem
            169.97999572753906 224 callgsubr
            276.02000427246094 71 callgsubr
            vstem
            return
          </CharString>
          <CharString index="328">
            -6.9900054931640625 return
          </CharString>
          <CharString index="329">
            -22.020004272460938 return
          </CharString>
          <CharString index="330">
            144.02000427246094 return
          </CharString>
          <CharString index="331">
            -433.00999450683594 return
          </CharString>
          <CharString index="332">
            -100.99000549316406 return
          </CharString>
          <CharString index="333">
            vvcurveto
            14 callgsubr
            -75 -25 callgsubr
            -59 -79 callsubr
            vhcurveto
            42 -51 rlineto
            112 -11 callsubr
            123 94 -36 callgsubr
            vvcurveto
            hintmask 11000000
            return
          </CharString>
          <CharString index="334">
            426 callsubr
            417 callgsubr
            374 callsubr
            return
          </CharString>
          <CharString index="335">
            -100 -20 94 511.99000549316406 -70 callsubr
            375.00999450683594 112 hstem
            64.97999572753906 156.00999450683594 546.0000152587891 163 vstem
            return
          </CharString>
          <CharString index="336">
            59 callsubr
            73 558 rlineto
            1 callsubr
            hlineto
            return
          </CharString>
          <CharString index="337">
            hhcurveto
            130 callgsubr
            -135.99000549316406 225 341 186 callsubr
            return
          </CharString>
          <CharString index="338">
            569 1046.990005493164 -21 callgsubr
            return
          </CharString>
          <CharString index="339">
            -26 callsubr
            -46 vvcurveto
            14 callgsubr
            return
          </CharString>
          <CharString index="340">
            320 341.00999450683594 return
          </CharString>
          <CharString index="341">
            -50.02000427246094 return
          </CharString>
          <CharString index="342">
            119.00999450683594 return
          </CharString>
          <CharString index="343">
            194.99000549316406 return
          </CharString>
          <CharString index="344">
            -130.99000549316406 return
          </CharString>
          <CharString index="345">
            291 -14 95 177 callsubr
            69 660 105 597.5 -73 callgsubr
            -78 94 hstemhm
            1190.990005493164 3 callsubr
            hintmask 10101100
            return
          </CharString>
          <CharString index="346">
            265 callgsubr
            45.02000427246094 -46 348 331 callgsubr
            return
          </CharString>
          <CharString index="347">
            -158 -523 -23 rlineto
            276.99000549316406 151 362 212 callsubr
            237 vvcurveto
            122 -100 111 -200 -1 vhcurveto
            421 callsubr
            return
          </CharString>
          <CharString index="348">
            42 callsubr
            154 callgsubr
            -325 rlineto
            return
          </CharString>
          <CharString index="349">
            886 0 69 635.9799957275391 87 639.510009765625 -73 callgsubr
            return
          </CharString>
          <CharString index="350">
            197 callsubr
            1 -35 40 return
          </CharString>
          <CharString index="351">
            -77.99000549316406 return
          </CharString>
          <CharString index="352">
            399 callsubr
            269 callgsubr
            478 callsubr
            509.00999450683594 hlineto
            16 120 callsubr
            rlineto
            -509.99000549316406 hlineto
            return
          </CharString>
          <CharString index="353">
            24 callsubr
            69 callgsubr
            -76 -49 260 callgsubr
          </CharString>
          <CharString index="354">
            344 callsubr
            46 178 callsubr
            return
          </CharString>
          <CharString index="355">
            -41 callsubr
            hhcurveto
            return
          </CharString>
          <CharString index="356">
            34 69 rmoveto
            3 callgsubr
            725 hlineto
            return
          </CharString>
          <CharString index="357">
            vvcurveto
            -146 -64 -101 -125.00999450683594 -42.99000549316406 243 callgsubr
            return
          </CharString>
          <CharString index="358">
            49 callsubr
            161.97999572753906 -145.989990234375 -78 callgsubr
            1363 89 hstemhm
            522.4799957275391 63 callsubr
            return
          </CharString>
          <CharString index="359">
            368 callsubr
            44 -66 40 383 callgsubr
            74 -1 rlinecurve
            return
          </CharString>
          <CharString index="360">
            -5 -34 -51 -422.99000549316406 -7 -44 rrcurveto
            return
          </CharString>
          <CharString index="361">
            hlineto
            -20 callsubr
            -81 return
          </CharString>
          <CharString index="362">
            146.97999572753906 return
          </CharString>
          <CharString index="363">
            0.9799957275390625 return
          </CharString>
          <CharString index="364">
            93.99000549316406 return
          </CharString>
          <CharString index="365">
            -89.00999450683594 return
          </CharString>
          <CharString index="366">
            hhcurveto
            127 95 -72 -26 callsubr
            24 hvcurveto
            86 135 rlineto
            67.99000549316406 -64 -80 131 callgsubr
            -113.00999450683594 hhcurveto
            return
          </CharString>
          <CharString index="367">
            232 callsubr
            -75 -25 callgsubr
            return
          </CharString>
          <CharString index="368">
            rmoveto
            -103 -516 rlineto
            -344 -71 133 79 callgsubr
            232 hhcurveto
            return
          </CharString>
          <CharString index="369">
            348 callsubr
            1515.990005493164 rmoveto
            -203 -1520.990005493164 return
          </CharString>
          <CharString index="370">
            hhcurveto
            116 82 48 46 52 hvcurveto
            return
          </CharString>
          <CharString index="371">
            hlineto
            -12 callsubr
            return
          </CharString>
          <CharString index="372">
            13 -51 callsubr
            return
          </CharString>
          <CharString index="373">
            hlineto
            -84 callgsubr
            return
          </CharString>
          <CharString index="374">
            59.99000549316406 return
          </CharString>
          <CharString index="375">
            27.020004272460938 return
          </CharString>
          <CharString index="376">
            121.02000427246094 return
          </CharString>
          <CharString index="377">
            159.99000549316406 return
          </CharString>
          <CharString index="378">
            353 callsubr
            218.00999450683594 157 callgsubr
            return
          </CharString>
          <CharString index="379">
            367 212 callsubr
            301 368.99000549316406 370.00999450683594 293.99000549316406 419 callsubr
            -368 return
          </CharString>
          <CharString index="380">
            121 callgsubr
            -93 -22 callsubr
            -1 -94 hvcurveto
            -264 hlineto
            -9 456 callgsubr
            return
          </CharString>
          <CharString index="381">
            -289 -20 75 callgsubr
            970 237 callgsubr
            hstem
            -76 callgsubr
            154 418 387 callgsubr
            vstem
            return
          </CharString>
          <CharString index="382">
            rlineto
            188.99000549316406 hlineto
            13 202 callsubr
            -188 -11 32 return
          </CharString>
          <CharString index="383">
            hvcurveto
            55 1 -35 40 -57 74 callgsubr
            return
          </CharString>
          <CharString index="384">
            -141 300 callsubr
            -108.99000549316406 189.99000549316406 return
          </CharString>
          <CharString index="385">
            58 callgsubr
            -105.00001525878906 return
          </CharString>
          <CharString index="386">
            75.97999572753906 159 return
          </CharString>
          <CharString index="387">
            4 rlineto
            -83 callsubr
            return
          </CharString>
          <CharString index="388">
            -251.99000549316406 return
          </CharString>
          <CharString index="389">
            -88.99000549316406 return
          </CharString>
          <CharString index="390">
            73.99000549316406 return
          </CharString>
          <CharString index="391">
            166.99000549316406 return
          </CharString>
          <CharString index="392">
            51.02000427246094 return
          </CharString>
          <CharString index="393">
            72.00999450683594 return
          </CharString>
          <CharString index="394">
            227.97999572753906 return
          </CharString>
          <CharString index="395">
            63 52 57 70 1.9900054931640625 -38 callsubr
            return
          </CharString>
          <CharString index="396">
            -46 348.02000427246094 331 callgsubr
            return
          </CharString>
          <CharString index="397">
            29 -40 callsubr
            63 582 112 callsubr
            671.0099945068359 174 18 rcurveline
            381 callsubr
            return
          </CharString>
          <CharString index="398">
            hvcurveto
            -35 callsubr
            1 -35 41 -57 hhcurveto
            -53 return
          </CharString>
          <CharString index="399">
            -321 279 callgsubr
            return
          </CharString>
          <CharString index="400">
            -396 -20 112 949.9799957275391 112 return
          </CharString>
          <CharString index="401">
            -234 -23 50.02000427246094 326 40 hvcurveto
            return
          </CharString>
          <CharString index="402">
            422.00999450683594 209 callsubr
            return
          </CharString>
          <CharString index="403">
            191 callsubr
            rlineto
            return
          </CharString>
          <CharString index="404">
            -89 -675 rlineto
            endchar
          </CharString>
          <CharString index="405">
            -0.9799957275390625 return
          </CharString>
          <CharString index="406">
            -340.00999450683594 return
          </CharString>
          <CharString index="407">
            91.02000427246094 return
          </CharString>
          <CharString index="408">
            116.97999572753906 return
          </CharString>
          <CharString index="409">
            129.99000549316406 return
          </CharString>
          <CharString index="410">
            -40.97999572753906 49 355 callgsubr
            return
          </CharString>
          <CharString index="411">
            394 callgsubr
            endchar
          </CharString>
          <CharString index="412">
            -41 49 84 callsubr
            return
          </CharString>
          <CharString index="413">
            403 71 callgsubr
            1304 hstem
            704.9799957275391 120.00999450683594 vstem
            1268.979995727539 return
          </CharString>
          <CharString index="414">
            hvcurveto
            -69 204 callgsubr
            436 callsubr
            247 callgsubr
            return
          </CharString>
          <CharString index="415">
            233 callsubr
            -25 callgsubr
            427 callgsubr
            return
          </CharString>
          <CharString index="416">
            -43 -23 -40 callsubr
            1375 -40 callsubr
            return
          </CharString>
          <CharString index="417">
            -66 callsubr
            223 27 hvcurveto
            1 11 1 11 11 vvcurveto
            return
          </CharString>
          <CharString index="418">
            200 callgsubr
            -203 return
          </CharString>
          <CharString index="419">
            173 callgsubr
            934.0099945068359 hstem
            return
          </CharString>
          <CharString index="420">
            94 -282.99000549316406 -349 rlineto
            return
          </CharString>
          <CharString index="421">
            hvcurveto
            -310.00999450683594 return
          </CharString>
          <CharString index="422">
            -83 callsubr
            rlineto
            return
          </CharString>
          <CharString index="423">
            -34 callgsubr
            hvcurveto
            return
          </CharString>
          <CharString index="424">
            rcurveline
            130 callsubr
            return
          </CharString>
          <CharString index="425">
            -16.020004272460938 return
          </CharString>
          <CharString index="426">
            82.97999572753906 return
          </CharString>
          <CharString index="427">
            211.99000549316406 return
          </CharString>
          <CharString index="428">
            80 callgsubr
            -100.97999572753906 vvcurveto
            -180 -121 -118 -105.97999572753906 -53 vhcurveto
            -3 -18 return
          </CharString>
          <CharString index="429">
            374.97999572753906 90 -78 92 498.010009765625 94 hstemhm
            447 callsubr
            140 153 163 return
          </CharString>
          <CharString index="430">
            388 callsubr
            445 callgsubr
            rmoveto
            -87 -11 48 -32.970001220703125 72 callgsubr
            return
          </CharString>
          <CharString index="431">
            -89 -592 rlineto
            106 hlineto
            138 592 rlineto
            -155 hlineto
            return
          </CharString>
          <CharString index="432">
            333 callsubr
            -42 -59 -81 hhcurveto
            return
          </CharString>
          <CharString index="433">
            29.979995727539062 return
          </CharString>
          <CharString index="434">
            -156.02000427246094 return
          </CharString>
          <CharString index="435">
            15.990005493164062 return
          </CharString>
          <CharString index="436">
            90.00999450683594 return
          </CharString>
          <CharString index="437">
            -40 callsubr
            1375 476 callsubr
            118 callsubr
            119 callgsubr
            return
          </CharString>
          <CharString index="438">
            -71 46 -57 rcurveline
            62 59 346 callgsubr
            64 124 hhcurveto
            127 64 -71 -86 -269 -493 return
          </CharString>
          <CharString index="439">
            1362.990005493164 -66 callsubr
            return
          </CharString>
          <CharString index="440">
            468 callsubr
            -45 65 rlineto
            -42 -30 return
          </CharString>
          <CharString index="441">
            13 callsubr
            -1 return
          </CharString>
          <CharString index="442">
            1602.990005493164 rmoveto
            return
          </CharString>
          <CharString index="443">
            48 callgsubr
            -35 return
          </CharString>
          <CharString index="444">
            835.9900054931641 rmoveto
            return
          </CharString>
          <CharString index="445">
            hhcurveto
            63 52 57 69 2 276 callsubr
            return
          </CharString>
          <CharString index="446">
            rmoveto
            -64 86 callgsubr
            111.99000549316406 -51.99000549316406 174.02000427246094 hhcurveto
            return
          </CharString>
          <CharString index="447">
            99 660.9900054931641 94 602.989990234375 93 return
          </CharString>
          <CharString index="448">
            92.5 hstem
            959.9700012207031 107 vstem
            return
          </CharString>
          <CharString index="449">
            -36 callgsubr
            158 860.989990234375 99 return
          </CharString>
          <CharString index="450">
            hstem
            173 callgsubr
            149 return
          </CharString>
          <CharString index="451">
            -35 callsubr
            hhcurveto
            61 57 return
          </CharString>
          <CharString index="452">
            162.97999572753906 154 return
          </CharString>
          <CharString index="453">
            11.020004272460938 return
          </CharString>
          <CharString index="454">
            -31.009994506835938 return
          </CharString>
          <CharString index="455">
            333.99000549316406 return
          </CharString>
          <CharString index="456">
            -66.99000549316406 return
          </CharString>
          <CharString index="457">
            -146.99000549316406 return
          </CharString>
          <CharString index="458">
            222.99000549316406 return
          </CharString>
          <CharString index="459">
            hlineto
            -134 -20 callsubr
            30 178 -11 callsubr
            229.99000549316406 rlineto
            return
          </CharString>
          <CharString index="460">
            360 callgsubr
            1197.990005493164 3 callsubr
            return
          </CharString>
          <CharString index="461">
            319 478.99000549316406 rmoveto
            -1 -32 callsubr
            -1 -14 49 callgsubr
            vvcurveto
            return
          </CharString>
          <CharString index="462">
            485 callgsubr
            1203.979995727539 105 callgsubr
            185 callsubr
            return
          </CharString>
          <CharString index="463">
            180 callsubr
            75 callgsubr
            101.97000122070312 47 52.02000427246094 return
          </CharString>
          <CharString index="464">
            195 -65 106 560 603 rcurveline
            120 18 11 81 rlineto
            -409.99000549316406 hlineto
            return
          </CharString>
          <CharString index="465">
            -23 -186 -79 callsubr
            -155 -86 callgsubr
            49 callgsubr
            rrcurveto
            return
          </CharString>
          <CharString index="466">
            -83 callsubr
            221 callsubr
            -69 rlineto
            return
          </CharString>
          <CharString index="467">
            127 -583 395 -53 175 callgsubr
            return
          </CharString>
          <CharString index="468">
            446 callsubr
            430 callsubr
            return
          </CharString>
          <CharString index="469">
            -291 996.9799957275391 165 return
          </CharString>
          <CharString index="470">
            430 callgsubr
            16 82 return
          </CharString>
          <CharString index="471">
            442 callgsubr
            -1328 return
          </CharString>
          <CharString index="472">
            57.02000427246094 47 return
          </CharString>
          <CharString index="473">
            -51 callgsubr
            vstem
            return
          </CharString>
          <CharString index="474">
            156 callgsubr
            vstem
            return
          </CharString>
          <CharString index="475">
            1799.990005493164 rmoveto
            return
          </CharString>
          <CharString index="476">
            -40 callgsubr
            -13 return
          </CharString>
          <CharString index="477">
            172.02000427246094 return
          </CharString>
          <CharString index="478">
            5.9799957275390625 return
          </CharString>
          <CharString index="479">
            125.99000549316406 return
          </CharString>
          <CharString index="480">
            448 callsubr
            104 callgsubr
            -135.99000549316406 hlineto
            return
          </CharString>
          <CharString index="481">
            231 38 66 rlinecurve
            146 callgsubr
            rlineto
            return
          </CharString>
          <CharString index="482">
            473 callsubr
            60.99000549316406 54 58 69 return
          </CharString>
          <CharString index="483">
            263 124 callsubr
            -112 return
          </CharString>
          <CharString index="484">
            hvcurveto
            4 -223.99000549316406 -147 -180 -239 46 callgsubr
            rrcurveto
            return
          </CharString>
          <CharString index="485">
            16 -20 98 472.99000549316406 88 425.989990234375 98.00999450683594 return
          </CharString>
          <CharString index="486">
            935.9900054931641 783.9900054931641 hstem
            return
          </CharString>
          <CharString index="487">
            -58 -54 465 callsubr
            return
          </CharString>
          <CharString index="488">
            -31 callsubr
            81 rlineto
            return
          </CharString>
          <CharString index="489">
            255 callgsubr
            -205 return
          </CharString>
          <CharString index="490">
            -36.97999572753906 return
          </CharString>
          <CharString index="491">
            258.99000549316406 return
          </CharString>
          <CharString index="492">
            -211.99000549316406 return
          </CharString>
          <CharString index="493">
            -179.02000427246094 return
          </CharString>
          <CharString index="494">
            451.00999450683594 return
          </CharString>
          <CharString index="495">
            712.9900054931641 return
          </CharString>
          <CharString index="496">
            -79.99000549316406 return
          </CharString>
          <CharString index="497">
            -47.99000549316406 return
          </CharString>
          <CharString index="498">
            936.9799957275391 784.0200042724609 hstem
            216.99000549316406 166 return
          </CharString>
          <CharString index="499">
            269 0 69 1363 89.99000549316406 480 callsubr
            return
          </CharString>
          <CharString index="500">
            1456.990005493164 rmoveto
            37 -69 return
          </CharString>
          <CharString index="501">
            135 callgsubr
            -41 49 hhcurveto
            return
          </CharString>
          <CharString index="502">
            -54 -69 51 callsubr
            return
          </CharString>
          <CharString index="503">
            -84 callgsubr
            69 return
          </CharString>
          <CharString index="504">
            153 175 169 return
          </CharString>
          <CharString index="505">
            -73 callgsubr
            hstemhm
            return
          </CharString>
          <CharString index="506">
            1863.990005493164 rmoveto
            return
          </CharString>
          <CharString index="507">
            hstem
            -32 callgsubr
            return
          </CharString>
          <CharString index="508">
            204 callsubr
            hhcurveto
            return
          </CharString>
          <CharString index="509">
            -57 hhcurveto
            -58 -53 return
          </CharString>
          <CharString index="510">
            476 callsubr
            13 callgsubr
            1208.990005493164 vstem
            return
          </CharString>
          <CharString index="511">
            hhcurveto
            155.02000427246094 hlineto
            410 callgsubr
            return
          </CharString>
          <CharString index="512">
            327 callgsubr
            76 callgsubr
            return
          </CharString>
          <CharString index="513">
            hhcurveto
            175 87 -138 -227 2 hvcurveto
            return
          </CharString>
          <CharString index="514">
            81 rlineto
            -484 hlineto
            -11 -81 168 -18 return
          </CharString>
          <CharString index="515">
            426 callgsubr
            -5 callgsubr
            -37 return
          </CharString>
          <CharString index="516">
            462 callgsubr
            -118 return
          </CharString>
          <CharString index="517">
            318.47999572753906 148.5 return
          </CharString>
          <CharString index="518">
            164.99000549316406 224 callgsubr
            return
          </CharString>
          <CharString index="519">
            329.99000549316406 return
          </CharString>
          <CharString index="520">
            376.02000427246094 return
          </CharString>
          <CharString index="521">
            -45.02000427246094 return
          </CharString>
          <CharString index="522">
            -25.009994506835938 return
          </CharString>
          <CharString index="523">
            87.99000549316406 return
          </CharString>
          <CharString index="524">
            349 -100 -94 rlineto
            return
          </CharString>
          <CharString index="525">
            508.99000549316406 return
          </CharString>
          <CharString index="526">
            -299.99000549316406 return
          </CharString>
          <CharString index="527">
            95.00999450683594 return
          </CharString>
          <CharString index="528">
            -170.99000549316406 return
          </CharString>
          <CharString index="529">
            8 callgsubr
            -66 callsubr
            33 hvcurveto
            -46 74 rlineto
            -45 return
          </CharString>
          <CharString index="530">
            1189.990005493164 591.9900054931641 hstem
            310.97999572753906 return
          </CharString>
          <CharString index="531">
            -34 189 -94 -89 callsubr
            1 -288.00999450683594 rlineto
            return
          </CharString>
          <CharString index="532">
            4 callgsubr
            -93 23 33 -41 callsubr
            hvcurveto
            endchar
          </CharString>
          <CharString index="533">
            159 callsubr
            49 57 callsubr
            return
          </CharString>
          <CharString index="534">
            46 -321 -273 464 callgsubr
            273 -60 -47 rlineto
            return
          </CharString>
          <CharString index="535">
            448 callgsubr
            1342.5 -40 callsubr
            return
          </CharString>
          <CharString index="536">
            11 1 346 callsubr
            11 vvcurveto
            return
          </CharString>
          <CharString index="537">
            -35 callsubr
            105 rlinecurve
            return
          </CharString>
          <CharString index="538">
            179.97999572753906 236 return
          </CharString>
          <CharString index="539">
            69 656.9900054931641 104 return
          </CharString>
          <CharString index="540">
            -150 -44 callgsubr
            return
          </CharString>
          <CharString index="541">
            119 callsubr
            hhcurveto
            return
          </CharString>
          <CharString index="542">
            143 callgsubr
            vvcurveto
            return
          </CharString>
          <CharString index="543">
            36 383 callsubr
            return
          </CharString>
          <CharString index="544">
            977.9900054931641 rlineto
            return
          </CharString>
          <CharString index="545">
            76 callgsubr
            hstem
            return
          </CharString>
          <CharString index="546">
            rlineto
            -39 callsubr
            return
          </CharString>
          <CharString index="547">
            1 callsubr
            hstem
            return
          </CharString>
          <CharString index="548">
            hvcurveto
            -39 callsubr
            return
          </CharString>
          <CharString index="549">
            -70 callsubr
            hstemhm
            return
          </CharString>
          <CharString index="550">
            -75.02000427246094 return
          </CharString>
          <CharString index="551">
            -428.00999450683594 return
          </CharString>
          <CharString index="552">
            5.0200042724609375 return
          </CharString>
          <CharString index="553">
            55 176 132 return
          </CharString>
          <CharString index="554">
            23.979995727539062 return
          </CharString>
          <CharString index="555">
            241.99000549316406 return
          </CharString>
          <CharString index="556">
            -132.02000427246094 return
          </CharString>
          <CharString index="557">
            199.99000549316406 return
          </CharString>
          <CharString index="558">
            57 69 316 callsubr
            55 1 -35 40 -57 hhcurveto
            return
          </CharString>
          <CharString index="559">
            -64 -101 48 callgsubr
            -40 callgsubr
            -42 8 return
          </CharString>
          <CharString index="560">
            220 hlineto
            82 188 49 callsubr
            47 hhcurveto
            return
          </CharString>
          <CharString index="561">
            -273 -185.99000549316406 1965.990005493164 hstem
            return
          </CharString>
          <CharString index="562">
            -79 callsubr
            79 callgsubr
            -1326 return
          </CharString>
          <CharString index="563">
            -521 -20 105 343 callsubr
            vstem
            return
          </CharString>
          <CharString index="564">
            266 133 351 305.99000549316406 -5 vhcurveto
            return
          </CharString>
          <CharString index="565">
            hstemhm
            128 callgsubr
            return
          </CharString>
          <CharString index="566">
            382 callsubr
            -42 return
          </CharString>
          <CharString index="567">
            hstemhm
            431 callsubr
            return
          </CharString>
          <CharString index="568">
            0 432 callsubr
            return
          </CharString>
          <CharString index="569">
            280 callgsubr
            -51 return
          </CharString>
          <CharString index="570">
            -73.02000427246094 return
          </CharString>
          <CharString index="571">
            1001.9799957275391 return
          </CharString>
          <CharString index="572">
            -50 -72 -10 hvcurveto
            -69 return
          </CharString>
          <CharString index="573">
            -262.97999572753906 return
          </CharString>
          <CharString index="574">
            81 rlineto
            -476 hlineto
            return
          </CharString>
          <CharString index="575">
            70 95 71 28 hvcurveto
            return
          </CharString>
          <CharString index="576">
            415.99000549316406 return
          </CharString>
          <CharString index="577">
            83.5 return
          </CharString>
          <CharString index="578">
            124.00999450683594 return
          </CharString>
          <CharString index="579">
            400 callsubr
            1546.990005493164 vstem
            return
          </CharString>
          <CharString index="580">
            96 callgsubr
            39 -41 49 hhcurveto
            return
          </CharString>
          <CharString index="581">
            -51 -22 -89 callsubr
            -12 -17 hvcurveto
            endchar
          </CharString>
          <CharString index="582">
            70 callgsubr
            -58 return
          </CharString>
          <CharString index="583">
            -40 callsubr
            hstem
            return
          </CharString>
          <CharString index="584">
            -11 callsubr
            hvcurveto
            return
          </CharString>
          <CharString index="585">
            105 callsubr
            rlineto
            return
          </CharString>
          <CharString index="586">
            222 callgsubr
            hhcurveto
            return
          </CharString>
          <CharString index="587">
            hstem
            284 callgsubr
            return
          </CharString>
          <CharString index="588">
            rmoveto
            -22 callsubr
            return
          </CharString>
          <CharString index="589">
            -55 -44 callgsubr
            return
          </CharString>
          <CharString index="590">
            233 -297 return
          </CharString>
          <CharString index="591">
            hstem
            92 163 return
          </CharString>
          <CharString index="592">
            1254.990005493164 473.97999572753906 hstem
            return
          </CharString>
          <CharString index="593">
            vhcurveto
            -34 callgsubr
            10 0 11 11 vvcurveto
            return
          </CharString>
          <CharString index="594">
            rlineto
            508 callgsubr
            return
          </CharString>
          <CharString index="595">
            -1 -5 -249 rlineto
            75 hlineto
            60 342 rlineto
            return
          </CharString>
          <CharString index="596">
            hstemhm
            171 callsubr
            return
          </CharString>
          <CharString index="597">
            11 11 vvcurveto
            -109 hlineto
            -25 return
          </CharString>
          <CharString index="598">
            -35 -12 -8 callgsubr
            return
          </CharString>
          <CharString index="599">
            64 392.989990234375 65 return
          </CharString>
          <CharString index="600">
            286.97999572753906 return
          </CharString>
          <CharString index="601">
            1541.979995727539 return
          </CharString>
          <CharString index="602">
            -52.02000427246094 return
          </CharString>
          <CharString index="603">
            -131.99000549316406 return
          </CharString>
          <CharString index="604">
            23.020004272460938 return
          </CharString>
          <CharString index="605">
            -38.02000427246094 return
          </CharString>
          <CharString index="606">
            204.97999572753906 return
          </CharString>
          <CharString index="607">
            468.99000549316406 return
          </CharString>
          <CharString index="608">
            723.9900054931641 return
          </CharString>
          <CharString index="609">
            470.02000427246094 return
          </CharString>
          <CharString index="610">
            -494 -20 105 return
          </CharString>
          <CharString index="611">
            571.9799957275391 423.02000427246094 return
          </CharString>
          <CharString index="612">
            -41 49 hhcurveto
            63 52 57 69 2 hvcurveto
            55 return
          </CharString>
          <CharString index="613">
            886.9799957275391 267 callgsubr
            return
          </CharString>
          <CharString index="614">
            hhcurveto
            110 88 61 callsubr
            return
          </CharString>
          <CharString index="615">
            -124 -934.0200042724609 rlineto
            endchar
          </CharString>
        <CharString name=".notdef">
          718 0 238 callgsubr
          952.989990234375 234 hstem
          219.99000549316406 495 callgsubr
          924.9999847412109 239 vstem
          220 1415.990005493164 rmoveto
          -1415.990005493164 1404.990005493164 1415.990005493164 -1404.990005493164 vlineto
          362.99000549316406 -1186 rmoveto
          -89 callsubr
          468 callgsubr
          106 callgsubr
          235 callsubr
          -10 10 350 336 rcurveline
          -351.00999450683594 357.00999450683594 116 -13 callgsubr
          346.00999450683594 -363.99000549316406 342 362 121 -119.00999450683594 -355 -351.99000549316406 355 -363.00999450683594 451 callgsubr
          -351 365 -337 -363.99000549316406 rlineto
          endchar
        </CharString>
        <CharString name=".null">
          -1127 endchar
        </CharString>
        <CharString name="A">
          -4 callgsubr
          hstem
          199 callgsubr
          vstem
          734.9900054931641 1521.990005493164 -102 callgsubr
        </CharString>
        <CharString name="AE">
          34 callgsubr
          704.9799957275391 69 -77 callsubr
        </CharString>
        <CharString name="AEacute">
          34 callgsubr
          1120.990005493164 1651 41 callgsubr
          -95 94 -283 -349 rlineto
          -416.00999450683594 -1582 -77 callsubr
        </CharString>
        <CharString name="Aacute">
          -4 callgsubr
          hstem
          199 callgsubr
          vstem
          747.9900054931641 1651 41 callgsubr
          256 callgsubr
          313 callsubr
          -13 -129 -102 callgsubr
        </CharString>
        <CharString name="Abreve">
          -4 callgsubr
          76 callgsubr
          117 hstem
          370 callgsubr
          13 callgsubr
          453.99998474121094 8 callgsubr
          vstem
          370 callgsubr
          95 callgsubr
          200 177.99000549316406 397 callsubr
          vhcurveto
          88 callgsubr
          -166.02000427246094 -34.970001220703125 136 91 213 callgsubr
          hvcurveto
          -82 hlineto
          -86 callgsubr
          -12 0 -15 -13 vvcurveto
          184 -416.99000549316406 -102 callgsubr
        </CharString>
        <CharString name="Acircumflex">
          -4 callgsubr
          360 118 hstem
          199 callgsubr
          vstem
          500 87 callsubr
          234.99000549316406 -153 -102 callgsubr
        </CharString>
        <CharString name="Adieresis">
          -54 callgsubr
        </CharString>
        <CharString name="Agrave">
          -4 callgsubr
          hstem
          199 callgsubr
          vstem
          527.9900054931641 30 callsubr
          -272 349 -100 -94 rlineto
          207 -384 -102 callgsubr
        </CharString>
        <CharString name="Amacron">
          -4 callgsubr
          223.010009765625 369 callgsubr
          199 callgsubr
          vstem
          585.9900054931641 55 callsubr
          149 -342 -102 callgsubr
        </CharString>
        <CharString name="Aogonek">
          199 callsubr
          313 6 callgsubr
          hstem
          772.9900054931641 120 callgsubr
          vstem
          734.9900054931641 1521.990005493164 rmoveto
          -708 -1429 -139 -24 99 callsubr
          470.97999572753906 hlineto
          5 69 -182.99000549316406 17 callgsubr
          174 366 rlineto
          590.9900054931641 hlineto
          62.02000427246094 -366.99000549316406 -185.02000427246094 -24 -4 -69 rlineto
          219 hlineto
          121 callsubr
          -40 -87 -46 -63 -89 -79 callsubr
          -28 405 callgsubr
          107 hhcurveto
          116 82 48 46 52 hvcurveto
          155 callsubr
          77 rlineto
          -42 -19 callgsubr
          473 callgsubr
          -39 -26 callsubr
          27 60 78 callgsubr
          hvcurveto
          2 136 callgsubr
          101.00999450683594 77 70 callsubr
          71 rrcurveto
          193 hlineto
          5 69 -169 -32 callgsubr
          -262 1426 rlineto
          -153 hlineto
          -342 -965 -64 callsubr
        </CharString>
        <CharString name="Aring">
          0 59 callgsubr
          954.0000152587891 57.99000549316406 362.00999450683594 157 callgsubr
          hstem
          546.9700012207031 101 399.02000427246094 -36 callgsubr
          vstem
          729.9900054931641 1512.979995727539 rmoveto
          -703 -1419.990005493164 -139 -24 99 callsubr
          470.97999572753906 hlineto
          5 69 -182.99000549316406 17 callgsubr
          174 366 rlineto
          590.9900054931641 hlineto
          62.02000427246094 -366.99000549316406 -185.02000427246094 -24 -4 -69 rlineto
          503.00999450683594 hlineto
          5 69 -169 -32 callgsubr
          -260 1415 rlineto
          58 callgsubr
          25.009994506835938 127 1 callsubr
          157 vvcurveto
          123 225 callsubr
          -70 callsubr
          -162.02000427246094 -151 -187 -96.99000549316406 -169 -108 64 -83 235 callsubr
          -27.009994506835938 vhcurveto
          317.00999450683594 263 rmoveto
          -142.99000549316406 -111 -64 258 callgsubr
          349 callgsubr
          -8 callgsubr
          75 -66 callsubr
          122 117 69.02000427246094 108 103.00999450683594 71 14 callgsubr
          -87 vhcurveto
          -654 -1218.990005493164 -64 callsubr
        </CharString>
        <CharString name="Atilde">
          -4 callgsubr
          166 368 callgsubr
          199 callgsubr
          hintmask 00000000
          hintmask 11011100
          490.99000549316406 252 callsubr
          hintmask 11010100
          -1 116 154 callsubr
          196 callgsubr
          hintmask 11011100
          124 callgsubr
          hintmask 11110100
          244 -278 -102 callgsubr
        </CharString>
        <CharString name="B">
          -74 callsubr
        </CharString>
        <CharString name="C">
          150 callgsubr
          125 callgsubr
          826 1537.990005493164 -100 callgsubr
        </CharString>
        <CharString name="CR">
          -1127 endchar
        </CharString>
        <CharString name="Cacute">
          150 callgsubr
          125 callgsubr
          715.9799957275391 189 callgsubr
          -283.00999450683594 -349 rlineto
          110.02000427246094 -113.00999450683594 -100 callgsubr
        </CharString>
        <CharString name="Ccaron">
          150 callgsubr
          405 callsubr
          125 callgsubr
          506.97999572753906 205 callsubr
          319.02000427246094 -415 -100 callgsubr
        </CharString>
        <CharString name="Ccedilla">
          -62 callgsubr
        </CharString>
        <CharString name="Ccircumflex">
          150 callgsubr
          343.99998474121094 118 125 callgsubr
          413 callgsubr
          125 callsubr
          373 callsubr
          225 callgsubr
          -325 rlineto
          358.00999450683594 -137 -100 callgsubr
        </CharString>
        <CharString name="Cdotaccent">
          150 callgsubr
          162.99998474121094 220.99000549316406 240 callgsubr
          472.989990234375 204 140 94 vstem
          721.9799957275391 1797.979995727539 rmoveto
          -56 15 callsubr
          39 163 callsubr
          54 58 69 1.9900054931640625 12 callsubr
          -2 hvcurveto
          391 callgsubr
          -260 -100 callgsubr
        </CharString>
        <CharString name="D">
          294 162 callgsubr
          hstemhm
          1197.990005493164 153.99000549316406 hintmask 00000000
          hintmask 01011000
          154 callsubr
          69 rmoveto
          hintmask 10011000
          -18 callsubr
          hintmask 01101000
          5 callgsubr
          hintmask 01011000
          394 callgsubr
          hintmask 10011000
          413 callgsubr
          1356 102 callgsubr
        </CharString>
        <CharString name="Dcaron">
          293 162 callgsubr
          84.010009765625 76 callgsubr
          hstemhm
          1190.990005493164 3 callsubr
          hintmask 10011100
          492.99000549316406 -55 callgsubr
          hintmask 01011100
          -467 -1884 rmoveto
          hintmask 10011100
          132 callsubr
          hintmask 01101100
          273 callsubr
          hintmask 01011100
          394 callgsubr
          hintmask 10011100
          97 callsubr
        </CharString>
        <CharString name="Dcroat">
          238 callsubr
          108.99000549316406 337 callsubr
          -11 -105 rlineto
          158 25 callsubr
          -161 hlineto
          297 -105 rmoveto
          431 hlineto
          11 105 rlineto
          -429.02000427246094 109 callgsubr
        </CharString>
        <CharString name="E">
          -53 callgsubr
          115 callgsubr
          154 callsubr
          69 rmoveto
          -7 -69 rlineto
          1032.009994506836 -101 callgsubr
        </CharString>
        <CharString name="Eacute">
          -53 callgsubr
          115 callgsubr
          672.9900054931641 1651 41 callgsubr
          -95 94 -283 -349 rlineto
          -640 -1582 rmoveto
          -7 -69 rlineto
          1032.009994506836 -101 callgsubr
        </CharString>
        <CharString name="Ebreve">
          -53 callgsubr
          491 callgsubr
          hstemhm
          475.99000549316406 13 callgsubr
          453.99998474121094 8 callgsubr
          -75.99998474121094 120.47999572753906 hintmask 11111010
          476 95 callgsubr
          200 vhcurveto
          hintmask 11111100
          178 397 callsubr
          hvcurveto
          88 callgsubr
          -166 -35 136 91 -5 hvcurveto
          -82 hlineto
          hintmask 11111010
          -86 callgsubr
          -12 0 -15 -13 vvcurveto
          -443 -1869.990005493164 rmoveto
          -7 -69 rlineto
          1032.009994506836 -101 callgsubr
        </CharString>
        <CharString name="Ecaron">
          -53 callgsubr
          100 112.99000549316406 115 callgsubr
          463.99000549316406 -55 callgsubr
          -431 -1884 rmoveto
          -7 -69 rlineto
          1032.009994506836 -101 callgsubr
        </CharString>
        <CharString name="Ecircumflex">
          -53 callgsubr
          359.989990234375 118 115 callgsubr
          424.97999572753906 125 callsubr
          242.02000427246094 42 callsubr
          225 callgsubr
          -325 rlineto
          -391.99000549316406 -1606 rmoveto
          -7 -69 rlineto
          1032.009994506836 -101 callgsubr
        </CharString>
        <CharString name="Edieresis">
          -53 callgsubr
          219.989990234375 7 callsubr
          475.99000549316406 -26 callgsubr
          -80.99000549316406 120.47999572753906 hintmask 11111010
          476 -59 callgsubr
          -29 callsubr
          -25 callgsubr
          14 callgsubr
          51 callsubr
          hintmask 11111100
          243 callsubr
          -57.02000427246094 74 callgsubr
          -862 29 callgsubr
        </CharString>
        <CharString name="Edotaccent">
          -53 callgsubr
          111 callsubr
          678.9900054931641 204 134 120.47999572753906 vstem
          678.9900054931641 96 callgsubr
          38.99000549316406 31 callsubr
          -646 -1728.990005493164 rmoveto
          -7 -69 rlineto
          1032.009994506836 -101 callgsubr
        </CharString>
        <CharString name="Egrave">
          -53 callgsubr
          115 callgsubr
          453 1905.990005493164 rmoveto
          -76 callgsubr
          106 callgsubr
          175 -134.99000549316406 97 -55 285 callsubr
          37 rcurveline
          -272.02000427246094 349 -99.99000549316406 -94 rlineto
          -420 -1837 rmoveto
          -7 -69 rlineto
          1032.009994506836 -101 callgsubr
        </CharString>
        <CharString name="Emacron">
          -53 callgsubr
          223 118.99000549316406 115 callgsubr
          511 245 callsubr
          -478 -1794.990005493164 rmoveto
          -7 -69 rlineto
          1032.009994506836 -101 callgsubr
        </CharString>
        <CharString name="Eng">
          383 0 69 1364.490005493164 -73 callgsubr
          hstem
          29 1507.979995727539 vstem
          465 callgsubr
          69 rmoveto
          221 callsubr
          -69 rlineto
          440 -59 callsubr
          -166 24 137 1230.009994506836 76 -200 518 -1127.9700012207031 -30 -150.02000427246094 -157 -92 -159 390 callsubr
          rlinecurve
          27.009994506835938 -71 186 36 245 -70 callsubr
          74 callsubr
          239 rlinecurve
          192 1423.990005493164 153 180 callgsubr
          -31 callsubr
          415 callgsubr
          rlineto
          -430 -75 callgsubr
          -81.02000427246094 52 callgsubr
          -34 callsubr
          -145 -1247 121 callsubr
          197 -521.9900054931641 1150.009994506836 rlineto
          -296.02000427246094 hlineto
          -28 callgsubr
          -81.02000427246094 150 -34 callsubr
          -177 -1332 -140 -23 rlineto
          endchar
        </CharString>
        <CharString name="Eogonek">
          90 199 callsubr
          313 103.49000549316406 624 115.5 586.5099945068359 92.49000549316406 hstem
          628.9799957275391 148 240.010009765625 120.47999572753906 vstem
          154 callsubr
          69 167 callgsubr
          859 hlineto
          -70.99000549316406 -40 -87 -45 -63.02000427246094 -89 -47 callsubr
          424 callgsubr
          41 -70 193 callgsubr
          263 callsubr
          -20.990005493164062 77 rlineto
          -42 -49 47 callgsubr
          -44 callgsubr
          -55 hhcurveto
          -38.99000549316406 -32 27 60 3 hvcurveto
          2 136 callgsubr
          -36 callgsubr
          77 1 callgsubr
          71 rrcurveto
          81 -101 callgsubr
        </CharString>
        <CharString name="Eth">
          238 callsubr
          75 callgsubr
          337 callsubr
          -12 -105 rlineto
          160.02000427246094 25 callsubr
          -162 hlineto
          298 -105 rmoveto
          429 hlineto
          12 105 rlineto
          -428.02000427246094 109 callgsubr
        </CharString>
        <CharString name="Euro">
          261 49 callsubr
          201 callsubr
          204 callgsubr
          269.52000427246094 228.49000549316406 105 241.989990234375 105 422.010009765625 -66 callsubr
          hstemhm
          237.99000549316406 192 callgsubr
          hintmask 10111100
          193 callgsubr
          1019.9900054931641 481 callsubr
          -105 rlineto
          173 hlineto
          -17 -75 -10 -82 -2 -85 rrcurveto
          -199 hlineto
          -11 -105 rlineto
          212 hlineto
          -292 -2 callsubr
          137 -291.97999572753906 314.97999572753906 hhcurveto
          132 106 34.970001220703125 25.009994506835938 75 hvcurveto
          hintmask 01111100
          -76 callgsubr
          265 callsubr
          12 100 callsubr
          -10 callsubr
          46 269 rcurveline
          -92 1 rlineto
          hintmask 10111100
          -63 -160.99000549316406 rlineto
          -29 callsubr
          -49 -135.99000549316406 -45 -122 hhcurveto
          -226 -105 200 290 -12 hvcurveto
          558 hlineto
          468 callgsubr
          105 rlineto
          -567.9900054931641 hlineto
          -34 callgsubr
          86 -8 callsubr
          81 13.990005493164062 75 rrcurveto
          597.0200042724609 hlineto
          16 105 rlineto
          -588 hlineto
          263 129 callsubr
          270 callsubr
          159 217 hhcurveto
          156 79 -38 -33 39 hvcurveto
          13 48 callgsubr
          rlineto
          13 callgsubr
          hlineto
          -5 callgsubr
          218 -17 4 129 callgsubr
          -8 callsubr
          -24 6.9900054931640625 rlinecurve
          23 -71 -89 31.009994506835938 479 callsubr
          -278 -251 -194.99000549316406 225 callgsubr
          -110 hvcurveto
          -188 hlineto
          endchar
        </CharString>
        <CharString name="F">
          23 0 319 callsubr
          641.5200042724609 309 callgsubr
          hstem
          1056.990005493164 76 callgsubr
          vstem
          154 callsubr
          69.97999572753906 51 callgsubr
        </CharString>
        <CharString name="G">
          5 callsubr
          hstem
          342 callsubr
          vstem
          837 1537.990005493164 -104 callgsubr
          endchar
        </CharString>
        <CharString name="Gbreve">
          5 callsubr
          97 117 hstemhm
          -36 callgsubr
          158 293 13 callgsubr
          453.99998474121094 8 callgsubr
          -49.00999450683594 99 hintmask 11111110
          552 95 callgsubr
          450 callsubr
          178 397 callsubr
          vhcurveto
          88 callgsubr
          -166 -35 136 91 -5 hvcurveto
          -82 hlineto
          -86 callgsubr
          -12 0 -15 -13 vvcurveto
          285 -401 rmoveto
          -393.00999450683594 -350 -356.99000549316406 -554 7 314 callsubr
          4 223 callsubr
          -333.97999572753906 358.99000549316406 hhcurveto
          157 148 47.97999572753906 30 99 -49 callsubr
          16 34 265 callsubr
          4 0 callgsubr
          629 rcurveline
          -440 hlineto
          -10 -93 280.97999572753906 -32 callsubr
          -61.99000549316406 -438 rlineto
          -8 callgsubr
          -75 117 callsubr
          -34 -116.02000427246094 hhcurveto
          -279 -110 294.02000427246094 274 -3.9900054931640625 hvcurveto
          354 -4 183.99000549316406 443.99000549316406 381.00999450683594 hhcurveto
          hintmask 11111101
          170.99000549316406 112 callsubr
          -29.979995727539062 -37 -81 callgsubr
          hvcurveto
          4.0200042724609375 -200.99000549316406 rlineto
          97 hlineto
          57 296 13 callsubr
          11 rlineto
          hintmask 11111110
          21 -41 callsubr
          101 callgsubr
          35 -204 hhcurveto
          endchar
        </CharString>
        <CharString name="Gcaron">
          5 callsubr
          84.02000427246094 438 callsubr
          342 callsubr
          vstem
          540 -55 callgsubr
          297 -415 -104 callgsubr
          endchar
        </CharString>
        <CharString name="Gcircumflex">
          5 callsubr
          344.00999450683594 118 hstem
          342 callsubr
          vstem
          500.97999572753906 125 callsubr
          242 42 callsubr
          225 callgsubr
          -325 rlineto
          336.02000427246094 -137 -104 callgsubr
          endchar
        </CharString>
        <CharString name="Gcommaaccent">
          5 callsubr
          hstem
          -36 callgsubr
          158 342.989990234375 203 callsubr
          380.00999450683594 99 vstem
          837 1537.990005493164 -104 callgsubr
          -328.00999450683594 -2064.979995727539 rmoveto
          59 -6 callsubr
          rlineto
          62 123 callgsubr
        </CharString>
        <CharString name="Gdotaccent">
          5 callsubr
          163.00999450683594 45 callsubr
          -36 callgsubr
          158 496 204 160.989990234375 99 vstem
          755 1797.979995727539 rmoveto
          -56 -1 39 31 callsubr
          82 -260 -104 callgsubr
          endchar
        </CharString>
        <CharString name="Gtilde">
          5 callsubr
          150.00999450683594 368 callgsubr
          342 callsubr
          hintmask 00000000
          hintmask 11111100
          491.99000549316406 368 callsubr
          104 callsubr
          -66 62 callsubr
          57.02000427246094 284 callgsubr
          45 74.02000427246094 -1 rlinecurve
          hintmask 11110100
          -1 116 33 -146 144 hhcurveto
          106 callsubr
          325 callsubr
          hintmask 11111100
          -111 -48 147 -133 hhcurveto
          -111 -73 -80 203 callgsubr
          -36 hvcurveto
          hintmask 11110110
          345 -262 -104 callgsubr
          endchar
        </CharString>
        <CharString name="H">
          388 0 69 656.9900054931641 340 callgsubr
          899.9900054931641 69.97999572753906 -67 callgsubr
        </CharString>
        <CharString name="Hbar">
          388 0 69 585.9900054931641 237 callgsubr
          267.99998474121094 104 301.510009765625 -73 callgsubr
          hstem
          -2 callsubr
          1525 vstem
          892.9900054931641 69.97999572753906 126 callsubr
          463 hlineto
          6 69 117 callsubr
          -7 callgsubr
          116 931 rlineto
          216 hlineto
          11 104 rlineto
          -214 hlineto
          100 callsubr
          292 140 19 113 callsubr
          81 rlineto
          -440.00999450683594 264 callsubr
          -81 120 callgsubr
          -19 47 callsubr
          -292 rlineto
          -724 hlineto
          37 292 150 19 381 callsubr
          -435 hlineto
          -10 -81 136 -19 -37 -292 rlineto
          -210 hlineto
          -11 -104 rlineto
          208 hlineto
          -117 -932 222 callgsubr
          -83 callsubr
          -7 -69 rlineto
          456.00999450683594 -59 callsubr
          -155.02000427246094 24 70 561.0099945068359 rlineto
          725.0200042724609 hlineto
          -70 -560 -159 -25 rlineto
          -483 688 rmoveto
          34 268 rlineto
          724 hlineto
          -33 -268 rlineto
          -725 hlineto
          endchar
        </CharString>
        <CharString name="Hcircumflex">
          388 461 callsubr
          601.5 -73 callgsubr
          343 callgsubr
          26.990005493164062 1497.979995727539 vstem
          552 87 callsubr
          348 -1605.020004272461 -67 callgsubr
        </CharString>
        <CharString name="I">
          -437 207 callsubr
          46.97999572753906 632.0099945068359 vstem
          -81 callgsubr
          69 -99 callgsubr
          endchar
        </CharString>
        <CharString name="IJ">
          392 callsubr
          1355.020004272461 vstem
          -81 callgsubr
          69 -99 callgsubr
          1021.0099945068359 1354 rmoveto
          234 callsubr
          -435 -47 -577 -68 292 callsubr
          -181.99000549316406 14 callsubr
          112 callsubr
          671.0099945068359 174 18 rcurveline
          8 356 callgsubr
        </CharString>
        <CharString name="IJ_acutecomb">
          392 callsubr
          1428 vstem
          469 callsubr
          37 callsubr
          681 -1 41 callgsubr
          256 callgsubr
          313 callsubr
          -1043 -1581 -99 callgsubr
          1021.0099945068359 1354 rmoveto
          234 callsubr
          -435 -47 -577 -68 292 callsubr
          -181.99000549316406 14 callsubr
          112 callsubr
          671.0099945068359 174 18 rcurveline
          8 356 callgsubr
        </CharString>
        <CharString name="Iacute">
          -437 207 callsubr
          46.97999572753906 747 vstem
          469 callsubr
          37 callsubr
          -362 -1582 -99 callgsubr
          endchar
        </CharString>
        <CharString name="Ibreve">
          -437 0 -58 callgsubr
          491 callgsubr
          hstem
          193 callsubr
          13 callgsubr
          453.99998474121094 8 callgsubr
          vstem
          193 callsubr
          95 callgsubr
          200 177.99000549316406 397 callsubr
          vhcurveto
          88 callgsubr
          79 callgsubr
          -35 136 91 213 callgsubr
          hvcurveto
          -81.99000549316406 hlineto
          -2 -12 0 -15 -13 vvcurveto
          -165 -1869.990005493164 -99 callgsubr
          endchar
        </CharString>
        <CharString name="Icircumflex">
          -437 0 -58 callgsubr
          343 callgsubr
          46.97999572753906 801.0099945068359 vstem
          168 87 callsubr
          -114.00999450683594 -1606 -99 callgsubr
          endchar
        </CharString>
        <CharString name="Idieresis">
          -437 0 -58 callgsubr
          219.989990234375 45 callsubr
          193 callsubr
          -26 callgsubr
          vstem
          -9 callsubr
          -584 -1773 -99 callgsubr
          endchar
        </CharString>
        <CharString name="Idotaccent">
          -437 0 -58 callgsubr
          111 callsubr
          281 callgsubr
          204 vstem
          281 callgsubr
          473 callsubr
          61 -81 callgsubr
          58 69 2 12 callsubr
          -2 hvcurveto
          -368 -1728.990005493164 -99 callgsubr
          endchar
        </CharString>
        <CharString name="Igrave">
          -437 207 callsubr
          46.97999572753906 632.0099945068359 vstem
          195.99000549316406 30 callsubr
          -272 349 -100 -94 rlineto
          -142 -1837 -99 callgsubr
          endchar
        </CharString>
        <CharString name="Imacron">
          -437 0 -58 callgsubr
          458 callgsubr
          46.97999572753906 717 vstem
          253.99000549316406 55 callsubr
          -200 -1794.990005493164 -99 callgsubr
          endchar
        </CharString>
        <CharString name="Iogonek">
          -437 199 callsubr
          313 -58 callgsubr
          hstem
          -32 367 callsubr
          -81 callgsubr
          69 167 callgsubr
          178 hlineto
          -72 -40 -87 -45 -62 -89 -20.990005493164062 424 callgsubr
          40.97999572753906 188 callgsubr
          101 77 97 71 rrcurveto
          187 -98 callsubr
          endchar
        </CharString>
        <CharString name="Itilde">
          -437 0 -58 callgsubr
          165.989990234375 368 callgsubr
          284 callgsubr
          822 509 callgsubr
          158.99000549316406 252 callsubr
          hintmask 11101000
          -1 116 33 196 callgsubr
          hintmask 11111000
          -111 -47.97999572753906 147 -133.02000427246094 hhcurveto
          -111 16 callsubr
          -80 203 callgsubr
          -36 hvcurveto
          hintmask 11101000
          -105 -1730.990005493164 -99 callgsubr
          endchar
        </CharString>
        <CharString name="J">
          -421 1432 297 callgsubr
          -154.99000549316406 866.9700012207031 vstem
          384.97999572753906 1422.990005493164 -21 callsubr
        </CharString>
        <CharString name="Jcircumflex">
          -421 1432 -70 callsubr
          343 callgsubr
          -154.99000549316406 994.9700012207031 vstem
          270 callsubr
          94 callsubr
          225 -252 -21 callsubr
        </CharString>
        <CharString name="K">
          220 207 callsubr
          26.990005493164062 1358.990005493164 vstem
          812.9900054931641 357.99000549316406 rmoveto
          83.00999450683594 376 callgsubr
          -135 35.99000549316406 -41.99000549316406 25 -48 74 -124 199 rlinecurve
          -72 110 347 callgsubr
          357 callsubr
          -10.009994506835938 486 callgsubr
          -27 callsubr
          -167 -1328 33 callsubr
          26 callgsubr
          49 390 193 callsubr
          236 54 -90 0 callgsubr
          -158 68.00999450683594 172 callsubr
          rlinecurve
          endchar
        </CharString>
        <CharString name="Kcommaaccent">
          213 207 callsubr
          610.9700012207031 138 vstem
          805.9900054931641 357.99000549316406 rmoveto
          83 376 callgsubr
          -134.97999572753906 35.99000549316406 -42 25 -48 74 -124.00999450683594 199 rlinecurve
          121 callsubr
          110 -113.00999450683594 357 callsubr
          -10 486 callgsubr
          150 -2 callgsubr
          -436 hlineto
          -9 381 callgsubr
          0 callsubr
          33 callsubr
          -7 -69 rlineto
          457.00999450683594 hlineto
          371 callsubr
          -78 callgsubr
          -156 24 49 390 193 callsubr
          236 54 -90 89 -158 68 172 callsubr
          rlinecurve
          -288.00999450683594 -882.9900054931641 rmoveto
          59 -33 rlineto
          62.02000427246094 -2 callsubr
          110 269 callsubr
          163 vvcurveto
          1 callsubr
          -37 89.00999450683594 -75 24 vhcurveto
          -98 300 callgsubr
          rlineto
          -51 vlineto
          42 -22 callsubr
          326 callsubr
          -61 47 callgsubr
          vvcurveto
          -82 69 callgsubr
          -76 -49 -35 vhcurveto
          -20 vlineto
          endchar
        </CharString>
        <CharString name="L">
          217 callgsubr
          28 1065.979995727539 vstem
          34 69.97999572753906 77 callgsubr
        </CharString>
        <CharString name="Lacute">
          217 callgsubr
          28 1065.979995727539 vstem
          407.97999572753906 1652.979995727539 rmoveto
          50 47 callsubr
          97 -35 callsubr
          176 132.02000427246094 430 callsubr
          -94.99000549316406 257 callsubr
          460 callgsubr
          -373.99000549316406 -1583 77 callgsubr
        </CharString>
        <CharString name="Lcaron">
          217 callgsubr
          957.9900054931641 136.60000610351562 vstem
          884 1006 64 callgsubr
          -850 -936.0200042724609 77 callgsubr
        </CharString>
        <CharString name="Lcommaaccent">
          217 callgsubr
          526.9900054931641 203 callsubr
          vstem
          34 69.97999572753906 -81 callsubr
          400 -594.9799957275391 rmoveto
          59 -33 rlineto
          62 -2 callsubr
          110 269 callsubr
          163 vvcurveto
          1 callsubr
          47 callsubr
          89.00999450683594 443 callsubr
          24 vhcurveto
          -98 300 callgsubr
          rlineto
          -51 vlineto
          42 -22 callsubr
          30 -61 47 callgsubr
          vvcurveto
          -82 -44.02000427246094 -76 -19 callgsubr
          -35 vhcurveto
          -20 vlineto
          endchar
        </CharString>
        <CharString name="Ldot">
          41 0 98.49000549316406 646.489990234375 228 458.510009765625 398 callsubr
          28 1116.3399963378906 -213.3699951171875 212 hintmask 10110000
          34 69.97999572753906 -81 callsubr
          hintmask 11101000
          1019 903 rmoveto
          -58.02000427246094 -53.99000549316406 -23 callgsubr
          -41 callsubr
          -11 callgsubr
          hvcurveto
          -69 -12 callsubr
          36 -37 344 callsubr
          46.02000427246094 178 callsubr
          11 hvcurveto
          60 -68 callsubr
          151 callsubr
          endchar
        </CharString>
        <CharString name="Lslash">
          41 -34 callgsubr
          98.5 1333 -73 callgsubr
          hstem
          28 1065.979995727539 vstem
          267 callsubr
          606.9900054931641 rmoveto
          28 -94.99000549316406 156.02000427246094 157 callgsubr
          -60 -482 -150 -24 -6 -70 rlineto
          970 hlineto
          -66 callsubr
          431 140 callsubr
          -346.00999450683594 -545 -9 69 550 491.00999450683594 209.02000427246094 -27.020004272460938 223 callgsubr
          -449.99000549316406 -194.99000549316406 13 callgsubr
          662 176 180 callgsubr
          8 415 callgsubr
          rlineto
          -461 -75 callgsubr
          -81.02000427246094 -45 callsubr
          -34 callsubr
          -92 -731.0099945068359 -199 -86 rlineto
          endchar
        </CharString>
        <CharString name="M">
          182 callsubr
          hstem
          1494.479995727539 367 callsubr
          -41 69.97999572753906 -85 callsubr
        </CharString>
        <CharString name="N">
          324 callgsubr
          hstem
          326 callsubr
          1511.009994506836 28 callsubr
          endchar
        </CharString>
        <CharString name="NULL">
          -1127 endchar
        </CharString>
        <CharString name="Nacute">
          324 callgsubr
          hstem
          326 callsubr
          1511.009994506836 vstem
          790 378 callgsubr
          -95 313 callsubr
          -754.0200042724609 -1582 -96 callgsubr
          endchar
        </CharString>
        <CharString name="Ncaron">
          324 callgsubr
          490 callgsubr
          326 callsubr
          1511.009994506836 vstem
          581 1952.990005493164 rmoveto
          221.97999572753906 -331 rlineto
          134 hlineto
          308.02000427246094 332 -49 46 225 callgsubr
          -265.00999450683594 -233.99000549316406 265.00999450683594 -58 -47 rlineto
          -545.0200042724609 -1884 -96 callgsubr
          endchar
        </CharString>
        <CharString name="Ncommaaccent">
          324 callgsubr
          hstem
          641.9799957275391 203 callsubr
          28 callsubr
          513 -595.9900054931641 rmoveto
          59 -6 callsubr
          rlineto
          62 20.009994506835938 110 121 163 vvcurveto
          91 -36.99000549316406 194 callsubr
        </CharString>
        <CharString name="Ntilde">
          324 callgsubr
          165.989990234375 368 callgsubr
          326 callsubr
          1511.009994506836 509 callgsubr
          532.9900054931641 368 callsubr
          104 callsubr
          -66 40 383 callgsubr
          74.02000427246094 -1 rlinecurve
          hintmask 11101000
          -1 116 154 callsubr
          -146 144 hhcurveto
          114.02000427246094 325 callsubr
          hintmask 11111000
          124 callgsubr
          hintmask 11101000
          -497.00999450683594 -1730.990005493164 -96 callgsubr
          endchar
        </CharString>
        <CharString name="O">
          109 callsubr
          808.9799957275391 494 callsubr
          -103 callgsubr
        </CharString>
        <CharString name="OE">
          983 187 callgsubr
          -75.99000549316406 103.49000549316406 624 116 585.5 93 -83.010009765625 101 hstemhm
          223 callgsubr
          -5 callsubr
          1662.009994506836 119.5 hintmask 00000000
          hintmask 10101100
          804.9900054931641 1539.990005493164 rmoveto
          -391.99000549316406 -321 -385 -534 10 hvcurveto
          -401 7 204 -240 304.97999572753906 hhcurveto
          220 187 128 206 244 callgsubr
          hvcurveto
          hintmask 01110110
          -37 -314 rlineto
          861 hlineto
          71 298.97999572753906 -80 25 -95 -211 -593 -19 158 callgsubr
          640 443 -28 callgsubr
          11 132 -445.99000549316406 -19 158 callgsubr
          601 481.02000427246094 -12 34 -195 rlineto
          82 hlineto
          7 212 callsubr
          rlineto
          -752 hlineto
          -42 -353 rlineto
          hintmask 10101100
          219 -65 -147.99000549316406 152 -230 hhcurveto
          343 -668 rmoveto
          7 -456.00999450683594 -222 -340.99000549316406 -292.97999572753906 -10 callsubr
          -260.02000427246094 2 -118 232 -5 382.00999450683594 rrcurveto
          426.99000549316406 -6 236 320 292.99000549316406 hhcurveto
          239 123 -187 -379.99000549316406 6 hvcurveto
          endchar
        </CharString>
        <CharString name="Oacute">
          109 callsubr
          747.9900054931641 1651 41 callgsubr
          256 callgsubr
          313 callsubr
          -20 callgsubr
          258 callgsubr
          -103 callgsubr
        </CharString>
        <CharString name="Obreve">
          38 callsubr
          92.989990234375 117 458 callsubr
          282 13 callgsubr
          453.99998474121094 8 callgsubr
          -19.009994506835938 -13 callsubr
          hintmask 11111010
          370 callgsubr
          95 callgsubr
          200 vhcurveto
          hintmask 11111100
          177.99000549316406 397 callsubr
          hvcurveto
          88 callgsubr
          -166.02000427246094 -34.970001220703125 136 91 213 callgsubr
          hvcurveto
          -82 hlineto
          hintmask 11111010
          -86 callgsubr
          -12 0 -15 -13 vvcurveto
          257.99000549316406 -397 -103 callgsubr
        </CharString>
        <CharString name="Ocircumflex">
          38 callsubr
          339.99998474121094 118 hstem
          -1 callsubr
          vstem
          500.97999572753906 125 callsubr
          242 42 callsubr
          225 callgsubr
          -325 rlineto
          308 -133.02000427246094 -103 callgsubr
        </CharString>
        <CharString name="Odieresis">
          38 callsubr
          199.99998474121094 220.99000549316406 458 callsubr
          282 -26 callgsubr
          -24.000015258789062 -13 callsubr
          hintmask 11111010
          370 callgsubr
          208 callgsubr
          135 callgsubr
          -52 callgsubr
          -56 -25 callgsubr
          14 callgsubr
          51 callsubr
          hintmask 11111100
          419 3 rmoveto
          -59 -2 39 -41 49 338 callsubr
          hintmask 11111010
          -161 -300.00999450683594 -103 callgsubr
        </CharString>
        <CharString name="Ograve">
          109 callsubr
          527.9900054931641 30 callsubr
          -272 349 -100 -94 rlineto
          280.99000549316406 -364.00999450683594 -103 callgsubr
        </CharString>
        <CharString name="Ohungarumlaut">
          109 callsubr
          464 callsubr
          1663 rmoveto
          286 callsubr
          176 callgsubr
          -102.02000427246094 362 callgsubr
          234.99000549316406 -119 -103 callgsubr
        </CharString>
        <CharString name="Omacron">
          38 callsubr
          348 callgsubr
          369 callgsubr
          -1 callsubr
          vstem
          585.9900054931641 55 callsubr
          351 callsubr
          -322 -103 callgsubr
        </CharString>
        <CharString name="Oslash">
          259 -18 -66 callsubr
          1364.979995727539 101 195 callsubr
          1543.990005493164 -56 callgsubr
        </CharString>
        <CharString name="Oslashacute">
          259 -18 -66 callsubr
          1364.979995727539 101 hstem
          -1 callsubr
          vstem
          797.9799957275391 189 callgsubr
          460 callgsubr
          11 -107.00999450683594 -56 callgsubr
        </CharString>
        <CharString name="Otilde">
          38 callsubr
          145.99998474121094 130 17 130 hstemhm
          -1 callsubr
          hintmask 00000000
          hintmask 11111100
          490.99000549316406 252 callsubr
          hintmask 11101100
          -1 116 154 callsubr
          196 callgsubr
          hintmask 11111100
          124 callgsubr
          hintmask 11101100
          318 -258 -103 callgsubr
        </CharString>
        <CharString name="P">
          -53 callsubr
        </CharString>
        <CharString name="Q">
          259 -357.99000549316406 140.97999572753906 500 callgsubr
          91.97000122070312 1365.010009765625 -36 callgsubr
          hstem
          76 callgsubr
          153 309.5800018310547 103.41999816894531 467 480 callgsubr
          805.9900054931641 1542.979995727539 rmoveto
          -396 -304 -390.97999572753906 -532.0099945068359 7 hvcurveto
          5 -343 158 -275 304 -47 callsubr
          rrcurveto
          467 callgsubr
          -37 184 -110 198 hhcurveto
          111.99000549316406 117 44 40 49 hvcurveto
          -2 390 callgsubr
          rlineto
          -29 -58 -96.99000549316406 222 callsubr
          -69 hhcurveto
          -152 -143.02000427246094 30 172 -39 callsubr
          hvcurveto
          366 38.970001220703125 266 383.02000427246094 -12 callsubr
          501.99000549316406 rrcurveto
          345.00999450683594 -6 -159 288.99000549316406 -332 hhcurveto
          340 302 callgsubr
          rmoveto
          -466 9 -224.02000427246094 299 callsubr
          173 callsubr
          hhcurveto
          -230.99000549316406 -136 225.02000427246094 341 -4 hvcurveto
          500 callsubr
          -6 227 330.02000427246094 293.99000549316406 hhcurveto
          270 callgsubr
          122 -229 -329.99000549316406 6 hvcurveto
          endchar
        </CharString>
        <CharString name="R">
          203 103 callsubr
          hstemhm
          1046.990005493164 192 callgsubr
          hintmask 11011000
          -76 callgsubr
          69 -61 callsubr
        </CharString>
        <CharString name="Racute">
          203 103 callsubr
          hstemhm
          1046.990005493164 192 callgsubr
          hintmask 11011000
          501 callsubr
          289 callgsubr
          -675 -1582 -61 callsubr
        </CharString>
        <CharString name="Rcaron">
          195 103 callsubr
          84.02000427246094 76 callgsubr
          hstemhm
          1039.990005493164 192 callgsubr
          hintmask 11011100
          461.99000549316406 -55 callgsubr
          -420 -1884 -57 callgsubr
          endchar
        </CharString>
        <CharString name="Rcommaaccent">
          195 103 callsubr
          hstemhm
          622.9799957275391 138 279.010009765625 192 callgsubr
          hintmask 11011100
          41.97999572753906 69 -57 callgsubr
          -128 -1290.979995727539 rmoveto
          59 -6 callsubr
          rlineto
          62.02000427246094 41 callsubr
          -37 341 callgsubr
          42 -15 29.990005493164062 146 callsubr
          69 callgsubr
          -76 -49 260 callgsubr
        </CharString>
        <CharString name="S">
          -43 -23 330 callsubr
          469.00999450683594 119 callgsubr
          vstem
          -40 callsubr
          344.99000549316406 35 callgsubr
          -101 callsubr
          -89 hlineto
          endchar
        </CharString>
        <CharString name="Sacute">
          -43 -23 330 callsubr
          469.00999450683594 119 callgsubr
          vstem
          620.9900054931641 37 callsubr
          -526 -1306.009994506836 35 callgsubr
          -101 callsubr
          -89 hlineto
          endchar
        </CharString>
        <CharString name="Scaron">
          309 callsubr
          80.00999450683594 112.99000549316406 219 callsubr
          412 -55 callgsubr
          -317.00999450683594 -1608 35 callgsubr
          -101 callsubr
          -89 hlineto
          endchar
        </CharString>
        <CharString name="Scedilla">
          -43 166 callsubr
          310 330 callsubr
          81.99998474121094 94 293.010009765625 119 callgsubr
          vstem
          657 1446.990005493164 rmoveto
          111 86 -57 callsubr
          -30 42 hvcurveto
          11 -193.99000549316406 rlineto
          82 hlineto
          46 260 rlineto
          37 -55 105 callsubr
          60 callgsubr
          -191.02000427246094 hhcurveto
          -255 -219 -161 -240.99000549316406 5 hvcurveto
          132 callgsubr
          -225.02000427246094 195 -117 155 -97 134 -83 137 92 callgsubr
          -6 -176 rrcurveto
          -197 -8 -191 -83 -158 hhcurveto
          -98 -112 25 -22 callgsubr
          -57 hvcurveto
          -12 210 rlineto
          -89 hlineto
          -41 -280 44.99000549316406 -35 158 -46.97999572753906 170 -6 rlinecurve
          4 -17 2 155 callsubr
          -83 callsubr
          vvcurveto
          -146 -64 -101 101 callgsubr
          -43 243 callgsubr
          53 hhcurveto
          149 118 -36 callgsubr
          227 46 -6 38 -10 31 hvcurveto
          266 180 callgsubr
          198 164.97999572753906 -5 263 -4.0099945068359375 216 -174 63 callsubr
          -151 -66 callsubr
          rrcurveto
          -139 86 -151 1 callgsubr
          181 vvcurveto
          174 160 75 146 vhcurveto
          endchar
        </CharString>
        <CharString name="Scircumflex">
          309 callsubr
          339.99998474121094 118 219 callsubr
          372.97999572753906 125 callsubr
          242 42 callsubr
          225 callgsubr
          -325 rlineto
          -278 -1330.009994506836 35 callgsubr
          -101 callsubr
          -89 hlineto
          endchar
        </CharString>
        <CharString name="Scommaaccent">
          -43 -23 330 callsubr
          87.99998474121094 203 callsubr
          243.02000427246094 119 callgsubr
          vstem
          -40 callsubr
          344.99000549316406 35 callgsubr
          -101 callsubr
          -89 hlineto
          251 -871.9799957275391 rmoveto
          59 -6 callsubr
          rlineto
          221 callgsubr
          123 callgsubr
        </CharString>
        <CharString name="T">
          98 0 84.5 1342.5 403 callsubr
          496 callgsubr
          75 -60 callgsubr
        </CharString>
        <CharString name="Tbar">
          98 0 448 callgsubr
          646.4900054931641 105 591.0099945068359 403 callsubr
          287.97999572753906 337 callsubr
          -13 -105 rlineto
          266.02000427246094 hlineto
          -81.02000427246094 -637.0099945068359 -244 -34 callsubr
          -6 -75 rlineto
          644.0200042724609 126 callgsubr
          82 637.0099945068359 rlineto
          324.02000427246094 hlineto
          12.990005493164062 105 rlineto
          -324 hlineto
          78 599 380.99000549316406 -16 -17 -345 84 1 -20 callgsubr
          447 rlineto
          -1136.990005493164 hlineto
          -41 callsubr
          -447 88 -34 callgsubr
          83 342.02000427246094 377 16 -77 -599 rlineto
          -267 hlineto
          endchar
        </CharString>
        <CharString name="Tcaron">
          278 callgsubr
          490 callgsubr
          13 callgsubr
          1208.990005493164 vstem
          451.99000549316406 -55 callgsubr
          -236 -1878 -60 callgsubr
        </CharString>
        <CharString name="Thorn">
          100 0 69 244.99000549316406 1 callsubr
          712.0099945068359 -66 callsubr
          226.50999450683594 -73 callgsubr
          hstem
          1031.979995727539 119 callgsubr
          vstem
          34 69 167 callgsubr
          500 callsubr
          -59 callsubr
          -168 24 28 227 439 callsubr
          -51 callsubr
          74 -4 120 callsubr
          hhcurveto
          323.00999450683594 264.99000549316406 198.99000549316406 316 245 -161 139 419 callsubr
          -76 -100 -7 -12 -74 hvcurveto
          29.990005493164062 236.02000427246094 150.02000427246094 180 callgsubr
          -84 callgsubr
          415 callgsubr
          rlineto
          -436 -75 callgsubr
          -81.02000427246094 -45 callsubr
          -34 callsubr
          -167 -1336.020004272461 394 callgsubr
          425 1029 rmoveto
          10 52 193 callgsubr
          -8 callsubr
          64 hhcurveto
          269 129 callsubr
          -112 -210 78 callgsubr
          hvcurveto
          -226 2 -160 -164 -281.99000549316406 hhcurveto
          -84 121 callsubr
          4 -8 callsubr
          -62 hvcurveto
          101 callsubr
          680 rlineto
          endchar
        </CharString>
        <CharString name="U">
          252 -20 89 -74 callgsubr
          hstem
          52 callgsubr
          152 vstem
          301 callgsubr
          593 -103 callsubr
        </CharString>
        <CharString name="Uacute">
          252 -20 89 -74 callgsubr
          hstem
          52 callgsubr
          152 vstem
          730.9900054931641 1651 41 callgsubr
          -95 94 -283 -349 rlineto
          -570 -1058 -103 callsubr
        </CharString>
        <CharString name="Ubreve">
          252 -20 89 -74 callgsubr
          491 callgsubr
          hstem
          52 callgsubr
          152 229 13 callgsubr
          453.99998474121094 8 callgsubr
          vstem
          534 95 callgsubr
          200 178 397 callsubr
          vhcurveto
          -79.02000427246094 107 callsubr
          -166 -35 136 91 -5 hvcurveto
          -82 hlineto
          -86 callgsubr
          -12 0 -15 -13 vvcurveto
          -373 -1345.990005493164 -103 callsubr
        </CharString>
        <CharString name="Ucircumflex">
          252 -20 89 -74 callgsubr
          343 callgsubr
          52 callgsubr
          152 vstem
          482.97999572753906 125 callsubr
          242.02000427246094 42 callsubr
          -323.02000427246094 -325 rlineto
          -321.97999572753906 -1082 -103 callsubr
        </CharString>
        <CharString name="Udieresis">
          252 -20 89 -74 callgsubr
          219.989990234375 45 callsubr
          52 callgsubr
          152 229 -26 callgsubr
          vstem
          534 1838.979995727539 rmoveto
          -56 -1 39 116 callgsubr
          -57.02000427246094 74 callgsubr
          -792 -1249 -103 callsubr
        </CharString>
        <CharString name="Ugrave">
          252 -20 89 -74 callgsubr
          hstem
          52 callgsubr
          152 vstem
          511 30 callsubr
          -272.02000427246094 349 -99.97999572753906 -94 rlineto
          -350 -1313 -103 callsubr
        </CharString>
        <CharString name="Uhungarumlaut">
          252 -20 89 -74 callgsubr
          hstem
          52 callgsubr
          152 vstem
          983.9799957275391 1663 rmoveto
          72 176 callgsubr
          106 callgsubr
          362 callgsubr
          -395 -1067.990005493164 -103 callsubr
        </CharString>
        <CharString name="Umacron">
          252 -20 89 -74 callgsubr
          458 callgsubr
          52 callgsubr
          152 vstem
          569 245 callsubr
          -408 -1270.990005493164 -103 callsubr
        </CharString>
        <CharString name="Uogonek">
          252 199 callsubr
          293 89 -74 callgsubr
          hstem
          52 callgsubr
          152 125 367 callsubr
          301 callgsubr
          593 rmoveto
          -7 -59 -2 -29 callsubr
          1 -52 rrcurveto
          -275.97999572753906 5 155.02000427246094 -170 285 hhcurveto
          18 18 1 1 17 hvcurveto
          -64 -37 -69.02000427246094 -44 -52 -75 -21 -29 405 callgsubr
          434 callsubr
          116 81.99000549316406 48 46 52.02000427246094 hvcurveto
          155 callsubr
          77 rlineto
          -42 -19 callgsubr
          482 callsubr
          -55 hhcurveto
          -39 129 callgsubr
          27 60 78 callgsubr
          hvcurveto
          1 58 68 callsubr
          91 callsubr
          81 74.02000427246094 471 callgsubr
          43.970001220703125 150 186.02000427246094 53 406 105 796 rcurveline
          58 callgsubr
          18 8 81 rlineto
          -398.99000549316406 hlineto
          -8 163 callgsubr
          -105 -793.9900054931641 rlineto
          -378 -45 -142 -180 -256 hhcurveto
          -210 -101 133 216 -4 hvcurveto
          -1 57 2 59 -84 callgsubr
          68 callsubr
          109.02000427246094 814 rcurveline
          67 callgsubr
          8 80 rlineto
          -446.00999450683594 90 callsubr
          140 -19 -110 -830 rlineto
          endchar
        </CharString>
        <CharString name="Uring">
          252 -20 89 -74 callgsubr
          113.989990234375 64 331 66 hstem
          52 callgsubr
          152 229 -36 callgsubr
          399.00999450683594 -36 callgsubr
          vstem
          534 1850.979995727539 rmoveto
          237 callsubr
          -66 callsubr
          172 callgsubr
          174 153 178 82 186 123 225 callsubr
          70 -162 -152 -186 -77 -169 vhcurveto
          500 45.02000427246094 rmoveto
          -143 -111 -53 -109 -112 -8 callgsubr
          64 63 callsubr
          122 117 -76 callgsubr
          108.02000427246094 223 callgsubr
          72 390 callsubr
          -87 vhcurveto
          -873 -1303 -103 callsubr
        </CharString>
        <CharString name="Utilde">
          252 -20 89 -74 callgsubr
          165.989990234375 368 callgsubr
          52 callgsubr
          152 509 callgsubr
          473.99000549316406 368 callsubr
          44 -66 62 callsubr
          383 callgsubr
          74 -1 rlinecurve
          hintmask 11101000
          -1 116 33 -146 144 hhcurveto
          106 callsubr
          468 callsubr
          -44.99000549316406 65 rlineto
          -42 -30 -42 -59 -81 hhcurveto
          hintmask 11111000
          124 callgsubr
          hintmask 11101000
          -313 -1206.990005493164 -103 callsubr
        </CharString>
        <CharString name="V">
          82 1431.490005493164 -73 callgsubr
          hstem
          221 callgsubr
          1288.990005493164 vstem
          201.99000549316406 1421.990005493164 rmoveto
          242 -1442.979995727539 134 10 651 1433.990005493164 114.02000427246094 19 -31 callsubr
          80 rlineto
          -395 hlineto
          -7 -80 149 -79 callsubr
          -429 -973 -123 -315.97999572753906 135 callsubr
          315.97999572753906 350 callsubr
          973 386 callgsubr
          42 callgsubr
          -481 hlineto
          -7 -81 140 -19 rlineto
          endchar
        </CharString>
        <CharString name="W">
          197 callgsubr
          180 1420.979995727539 -97 callgsubr
        </CharString>
        <CharString name="Wacute">
          197 callgsubr
          956.9900054931641 289 callgsubr
          -776.9900054931641 -230.02000427246094 -97 callgsubr
        </CharString>
        <CharString name="Wcircumflex">
          664 1430.990005493164 1 callsubr
          359.99998474121094 118 hstem
          33.99000549316406 1962.979995727539 vstem
          709.9799957275391 125 callsubr
          242.02000427246094 42 callsubr
          225 callgsubr
          -325 rlineto
          -529.9900054931641 -254.02000427246094 -97 callgsubr
        </CharString>
        <CharString name="Wdieresis">
          664 1430.990005493164 1 callsubr
          219.99998474121094 45 callsubr
          759.9900054931641 -26 callgsubr
          vstem
          759.9900054931641 -59 callgsubr
          -56 -25 callgsubr
          14 callgsubr
          -2 hvcurveto
          478 callgsubr
          -51 callsubr
          -41 48.99000549316406 338 callsubr
          -999 -421.00999450683594 -97 callgsubr
        </CharString>
        <CharString name="Wgrave">
          197 callgsubr
          736.9900054931641 30 callsubr
          -272 349 -100 -94 rlineto
          -557 -485.00999450683594 -97 callgsubr
        </CharString>
        <CharString name="X">
          -18 callgsubr
        </CharString>
        <CharString name="Y">
          65 callsubr
          185 callgsubr
          247.99000549316406 69.97999572753906 -91 callgsubr
        </CharString>
        <CharString name="Yacute">
          65 callsubr
          185 callgsubr
          664.9900054931641 189 callgsubr
          -283.00999450683594 -349 rlineto
          -417 -1581.020004272461 -91 callgsubr
        </CharString>
        <CharString name="Ycircumflex">
          65 callsubr
          359.989990234375 118 185 callgsubr
          416.99000549316406 94 callsubr
          -169 -1605.020004272461 -91 callgsubr
        </CharString>
        <CharString name="Ydieresis">
          65 callsubr
          219.989990234375 45 callsubr
          467.97999572753906 -26 callgsubr
          vstem
          413 callgsubr
          208 callgsubr
          -51 callsubr
          -41 46.99000549316406 hhcurveto
          61 431 callgsubr
          -10 callsubr
          298 callgsubr
          478 callgsubr
          -51 callsubr
          191 callgsubr
          63 52.02000427246094 57 69 1.9900054931640625 276 callsubr
          -639 -1772.009994506836 -91 callgsubr
        </CharString>
        <CharString name="Ygrave">
          65 callsubr
          185 callgsubr
          444.99000549316406 169 callgsubr
          97 487 callgsubr
          -197 -1836.009994506836 -91 callgsubr
        </CharString>
        <CharString name="Z">
          70 0 -66 callsubr
          1331.009994506836 476 callsubr
          371 callsubr
          1197.020004272461 vstem
          371 callsubr
          68 callsubr
          -67 callsubr
        </CharString>
        <CharString name="Zacute">
          70 0 -66 callsubr
          1331.009994506836 476 callsubr
          371 callsubr
          1197.020004272461 vstem
          645 378 callgsubr
          256 callgsubr
          313 callsubr
          -639.0200042724609 -1578 -67 callsubr
        </CharString>
        <CharString name="Zcaron">
          70 0 -66 callsubr
          1331.009994506836 -40 callsubr
          490 callgsubr
          371 callsubr
          1197.020004272461 vstem
          435 -55 callgsubr
          -429.02000427246094 -1880 -67 callsubr
        </CharString>
        <CharString name="Zdotaccent">
          70 0 -66 callsubr
          1331.009994506836 -40 callsubr
          111 callsubr
          649.9900054931641 204 vstem
          649.9900054931641 96 callgsubr
          38.99000549316406 31 callsubr
          -644.0099945068359 -1724.990005493164 -67 callsubr
        </CharString>
        <CharString name="a">
          36 callgsubr
          32 callgsubr
          hintmask 00000000
          hintmask 10110000
          1035 321 callgsubr
          -92 callgsubr
        </CharString>
        <CharString name="aacute">
          36 callgsubr
          32 callgsubr
          hintmask 01110000
          1053 1619.990005493164 rmoveto
          146 callgsubr
          -76 callgsubr
          7 callgsubr
          38 66 rlinecurve
          hintmask 10110000
          -18 -1476 -92 callgsubr
        </CharString>
        <CharString name="abreve">
          36 callgsubr
          140.989990234375 118 32 callgsubr
          192.99000549316406 470 callsubr
          hintmask 01111100
          726 159 callsubr
          168 91 callgsubr
          165 148 79 callsubr
          hvcurveto
          -34 callgsubr
          361 callgsubr
          -22 callsubr
          -82 -147 -149 hhcurveto
          -134 -61.99000549316406 105 91 -11 hvcurveto
          -3 145 callsubr
          -160 103.02000427246094 -164 186 vhcurveto
          hintmask 10111100
          309 -1159.990005493164 rmoveto
          53 callsubr
          -90 callgsubr
          hvcurveto
          hintmask 01111100
          -86 callsubr
          hintmask 10111100
          -87 callgsubr
          -253 198 rmoveto
          hintmask 01111100
          -92 callsubr
          hintmask 10111100
          297 callsubr
        </CharString>
        <CharString name="acircumflex">
          36 callgsubr
          367.989990234375 119 32 callgsubr
          hintmask 01111000
          756 1530.979995727539 rmoveto
          483 callsubr
          57 153 callgsubr
          -136 502 callgsubr
          45 -46 348.02000427246094 295 rlineto
          hintmask 10111000
          279 -1386.990005493164 -19 callsubr
        </CharString>
        <CharString name="acute">
          -568 485 callsubr
          57.99000549316406 430.97999572753906 vstem
          58 213 callsubr
          endchar
        </CharString>
        <CharString name="acute.cap">
          -600 1613.979995727539 386 hstem
          39.99000549316406 377.99000549316406 vstem
          40 378 callgsubr
          -95 94 -283 -349 rlineto
          endchar
        </CharString>
        <CharString name="adieresis">
          -77 callgsubr
        </CharString>
        <CharString name="ae">
          -80 callsubr
        </CharString>
        <CharString name="aeacute">
          584 429 callgsubr
          507.010009765625 98 -93 93 hstemhm
          469 callgsubr
          92 callsubr
          544.0200042724609 159 539 92 callsubr
          hintmask 11101110
          805.9900054931641 227 callsubr
          -729.0099945068359 -894 rmoveto
          -264.99000549316406 420 callsubr
          -165 206 180.99000549316406 151 183.99000549316406 153 112 callsubr
          vhcurveto
          -200.99000549316406 25 110 -136 230.99000549316406 hhcurveto
          201 170 126.99000549316406 8 callgsubr
          58 hvcurveto
          -36 68 rlineto
          -115 -120 -141.99000549316406 -47 -114.02000427246094 hhcurveto
          268 callgsubr
          -34 189.99000549316406 185 11 hvcurveto
          198.99000549316406 5 496 124 314 vvcurveto
          hintmask 11011110
          141 -87 117 -191 -6 vhcurveto
          -130 -4.0099945068359375 191 callsubr
          -63 -97 -98 rrcurveto
          hintmask 11101110
          29 165 -113.00999450683594 -34 -2 -2 rlineto
          19 -56 -77 17 -67.99000549316406 hhcurveto
          -409 -233 -443 -309 hvcurveto
          hintmask 11011110
          1398.009994506836 489 rmoveto
          -213 -312 -122 -223 -7 vhcurveto
          213 -63 callgsubr
          137 299 220 hhcurveto
          237 callgsubr
          54 -58 -112 hvcurveto
          -660.0099945068359 -231 rmoveto
          -23 -74.02000427246094 -32 callsubr
          4 callgsubr
          -1 80 callgsubr
          rrcurveto
          -32 callsubr
          vlineto
          -108.00999450683594 -53 222 callgsubr
          -221 -171 hhcurveto
          -107.99000549316406 -63.02000427246094 103.02000427246094 231 hvcurveto
          hintmask 11101110
          270.99000549316406 160 365.02000427246094 303 68 65 46 callgsubr
          -39 45 vhcurveto
          hintmask 11011110
          -59 -342 rlineto
          endchar
        </CharString>
        <CharString name="agrave">
          36 callgsubr
          32 callgsubr
          hintmask 01110000
          388 callsubr
          1254.990005493164 rmoveto
          -5 callgsubr
          -76 callgsubr
          -302 425 451 callgsubr
          50 -92 222 -205 420 callsubr
          96 callsubr
          rlinecurve
          hintmask 10110000
          322 -1111 -92 callgsubr
        </CharString>
        <CharString name="amacron">
          36 callgsubr
          268.989990234375 119 32 callgsubr
          hintmask 01111000
          982 317 callgsubr
          399 callgsubr
          303 callgsubr
          hintmask 10111000
          53 -1407 -19 callsubr
        </CharString>
        <CharString name="ampersand">
          424 -17 0 callgsubr
          590 122 -91.010009765625 117 656.010009765625 319 callsubr
          hstemhm
          -20 callgsubr
          -5 callsubr
          105.99998474121094 137 470.010009765625 156 callgsubr
          31.009994506835938 203 callsubr
          225.99998474121094 60 hintmask 0000000000000000
          hintmask 1011111100000000
          876.9900054931641 768 rmoveto
          -108.02000427246094 vlineto
          13 23 56 -2 callsubr
          54 hhcurveto
          28 25 15 callsubr
          -2 23 hvcurveto
          12 -35 11 -45 -59 vvcurveto
          -142 -28 -115 463 callsubr
          -81 vhcurveto
          -164 146 -151 118 callsubr
          -120 215 rrcurveto
          hintmask 1101111000000000
          237 131 268 118.00999450683594 244.97999572753906 vvcurveto
          136 -76 144 -239.99000549316406 -249.02000427246094 -191 -154.99000549316406 -241 -111 43 -156 50 -112 vhcurveto
          -188 -98 79 callgsubr
          -110 -199.99000549316406 vvcurveto
          -271.00999450683594 248 -111.97999572753906 254.02000427246094 144 421 callgsubr
          30.979995727539062 58 109.02000427246094 vhcurveto
          hintmask 1101111110000000
          -63 75 callsubr
          89 -29 86 hhcurveto
          36 51 0 19 77 hvcurveto
          8 70 -50 -3 -63 10 -50 79 callsubr
          rlinecurve
          -52 13.990005493164062 -42 25.009994506835938 135 callsubr
          29 rrcurveto
          110.02000427246094 103 157 callgsubr
          143.02000427246094 180 vvcurveto
          74 callsubr
          -39 callsubr
          268 callsubr
          -5 23 vhcurveto
          48 callsubr
          -7 callgsubr
          25 -86 callgsubr
          -7 callgsubr
          hhcurveto
          159 53 111 386 callgsubr
          5 hvcurveto
          -60 hlineto
          101 callgsubr
          -34 callsubr
          -52 -46 -117 hhcurveto
          hintmask 1011111100000000
          -98.02000427246094 -83.99000549316406 -7 callgsubr
          -89 hhcurveto
          -73 -49 -44 callgsubr
          49 callsubr
          -15 hvcurveto
          hintmask 1101111000000000
          -337 438 callgsubr
          -36 76 -45 128 131 vvcurveto
          170 111 123 172 150 37 -115.02000427246094 -98 -205.99000549316406 -188 -107 -200.99000549316406 106 callgsubr
          vhcurveto
          348 -711.9900054931641 rmoveto
          -35 80 callgsubr
          121 callgsubr
          -19 -131 hhcurveto
          -216.99000549316406 -144.02000427246094 103 194 147 102.00999450683594 100 133 86 hvcurveto
          116 -200 105 -172 216 -204 rrcurveto
          endchar
        </CharString>
        <CharString name="aogonek">
          46 199 callsubr
          293 95 callsubr
          hstem
          87.97999572753906 156.00999450683594 361.00001525878906 120 callgsubr
          vstem
          994 28 rmoveto
          100 callsubr
          28 24 74 callsubr
          7 12 -27 44 rcurveline
          53 callsubr
          -90 callgsubr
          -250 92.02000427246094 -182 226 146.99000549316406 134 -13 callgsubr
          104 77 hvcurveto
          54 callgsubr
          -11 callgsubr
          -74.02000427246094 -6 -83.99000549316406 32 -38.99000549316406 -35 callsubr
          -11 rlinecurve
          -68 -38 -72 -40 callgsubr
          -52.97999572753906 -77 136 callsubr
          -29 -12 -43 -86 callgsubr
          428 callgsubr
          136 callsubr
          77 rlineto
          -42 -19 callgsubr
          473 callgsubr
          135 callsubr
          129 callgsubr
          27 60 78 callgsubr
          hvcurveto
          1 89 132 85 390 callgsubr
          105 callgsubr
          rrcurveto
          -212 314 rmoveto
          -92 callsubr
          297 callsubr
        </CharString>
        <CharString name="approxequal">
          -101 302.97999572753906 133.00999450683594 41.99000549316406 446 callgsubr
          131 callsubr
          446 callgsubr
          42.00999450683594 446 callgsubr
          hstemhm
          -76 callgsubr
          964.9900054931641 hintmask 00000000
          hintmask 10111000
          223 callgsubr
          855.9799957275391 rmoveto
          55 96 callsubr
          rlineto
          158 callgsubr
          -81 callgsubr
          129 callsubr
          49 89 hhcurveto
          hintmask 10101000
          120 409 callgsubr
          106 -40 callsubr
          28 hvcurveto
          -56 60 rlineto
          -65 -41 -68 -63 -101 hhcurveto
          hintmask 10111000
          -122 -8 callgsubr
          175 -151.99000549316406 hhcurveto
          -151 -126.02000427246094 -119.00999450683594 -82 -28 hvcurveto
          hintmask 11101000
          -53 -446 rmoveto
          55 -60 rlineto
          8 callgsubr
          -81 callgsubr
          129 callsubr
          -76 callgsubr
          89 hhcurveto
          hintmask 10101000
          -13 callgsubr
          409 callgsubr
          106 95 28 hvcurveto
          -25 callgsubr
          60 rlineto
          -65 -41 -67.99000549316406 -63 205 callgsubr
          hhcurveto
          hintmask 11101000
          -122 349 callsubr
          174.97999572753906 -152 hhcurveto
          -151 -126.02000427246094 105 callsubr
          -82 -28 hvcurveto
          endchar
        </CharString>
        <CharString name="aring">
          36 callgsubr
          93 492 callsubr
          32 callgsubr
          417 callgsubr
          101 404.010009765625 99 hintmask 01111111
          738 1256 rmoveto
          270 callsubr
          172 257 callsubr
          210 131 callsubr
          -97.02000427246094 80 -166.99000549316406 -156 -184 172 callgsubr
          -208 -140 93 92 callgsubr
          179.02000427246094 hvcurveto
          164 callgsubr
          483 callgsubr
          109 68.02000427246094 -68 106 callgsubr
          -167 -108.00999450683594 98 callgsubr
          hvcurveto
          hintmask 10111111
          150 -1628 rmoveto
          -90 callgsubr
          hvcurveto
          hintmask 01111111
          -86 callsubr
          hintmask 10111111
          -87 callgsubr
          53 callsubr
          -162 257 rmoveto
          hintmask 01111111
          -92 callsubr
          hintmask 10111111
          297 callsubr
        </CharString>
        <CharString name="arrowdown">
          306 callsubr
          819 rmoveto
          -458 -456.00999450683594 131 callgsubr
          172 rlineto
          912 vlineto
          -120.02000427246094 -1 rlineto
          -911 vlineto
          131 callgsubr
          -174.02000427246094 -459 458.02000427246094 203 callgsubr
          -86 589 -590 590 590 203 callgsubr
          86 rlineto
          endchar
        </CharString>
        <CharString name="arrowleft">
          403 704 372 callsubr
          hstem
          76 callgsubr
          1304 vstem
          785 1267 rmoveto
          -82 0 callgsubr
          -590.0099945068359 -589.9900054931641 590.0099945068359 -589 351 callgsubr
          89 -455.99000549316406 452 175 -32 callsubr
          rlineto
          909.9900054931641 hlineto
          2 372 callsubr
          rlineto
          -912 hlineto
          -175 46 callgsubr
          455 452.02000427246094 rlineto
          endchar
        </CharString>
        <CharString name="arrowright">
          403 704 372 callsubr
          hstem
          76 callgsubr
          1304 vstem
          744.9799957275391 1267 rmoveto
          455 -452.02000427246094 -175 180 callsubr
          rlineto
          -912 hlineto
          2 497 callgsubr
          rlineto
          909.9900054931641 hlineto
          175 13.990005493164062 -455.99000549316406 -452 351 callgsubr
          -89 590.0099945068359 589 -590.0099945068359 589.9900054931641 -82 282 callsubr
          rlineto
          endchar
        </CharString>
        <CharString name="arrowup">
          306 callsubr
          770.9900054931641 rmoveto
          101 callsubr
          86 -590 590 -589 -590 101 callsubr
          -86 459 457.99000549316406 49 callgsubr
          -174 rlineto
          -911 vlineto
          244 callgsubr
          -1 rlineto
          912 vlineto
          49 callgsubr
          172 458 -456 rlineto
          endchar
        </CharString>
        <CharString name="asciicircum">
          236 412.99000549316406 1117.979995727539 hstem
          184.99000549316406 992.9900054931641 vstem
          599.9799957275391 1530.979995727539 rmoveto
          -414.99000549316406 -1117.990005493164 rlineto
          120 callsubr
          hlineto
          413 callsubr
          955.9900054931641 377 -955.9900054931641 rlineto
          121 hlineto
          -420 1117.990005493164 rlineto
          -158 hlineto
          endchar
        </CharString>
        <CharString name="asciitilde">
          10 737.9900054931641 446 callgsubr
          42.00999450683594 446 callgsubr
          hstemhm
          92 callsubr
          911.9900054931641 hintmask 00000000
          hintmask 11100000
          156 844.9799957275391 rmoveto
          -35 callsubr
          96 callsubr
          rlineto
          158 callgsubr
          54 78 49 0 callgsubr
          hhcurveto
          hintmask 10100000
          244 callgsubr
          409 callgsubr
          105.99000549316406 95 28 hvcurveto
          -56 60 rlineto
          -65 -41 14 callgsubr
          -63 225 callsubr
          hhcurveto
          hintmask 11100000
          -122 -8 callgsubr
          175 -152 hhcurveto
          -151 -126 -119.00999450683594 -82 -28 hvcurveto
          endchar
        </CharString>
        <CharString name="asterisk">
          239 646.9799957275391 1005.9900054931641 hstemhm
          747.9900054931641 52.49000549316406 -51.49000549316406 224 callgsubr
          -139.99000549316406 53 hintmask 11000000
          285 962.9900054931641 rmoveto
          267 callsubr
          -134 292 195.02000427246094 111 105 callgsubr
          -28 -123 -61 -333 147 -1 -3.0200042724609375 466 callgsubr
          -5 123 329 callsubr
          -81 246 -199 416 callsubr
          132 -285 142 -110 48 174 callgsubr
          50 319 139 -59 134 rlineto
          hintmask 10010000
          173 callsubr
          -197 -111 -80 rlineto
          hintmask 10100000
          27 127 60 333 rlineto
          hintmask 10010000
          -146 -10 callsubr
          2 -333.99000549316406 -31 callsubr
          -127 -94.99000549316406 80 -252 118 callsubr
          -88 -133 292 -143 114 -50 -126 390 callsubr
          rlineto
          hintmask 11000000
          -318 -136 rlineto
          endchar
        </CharString>
        <CharString name="at">
          842 -427.99000549316406 110 324.9700012207031 130 -115.989990234375 116 854.989990234375 100 348 105 hstemhm
          -13 callgsubr
          116 309 -45 callsubr
          492.00999450683594 203 callsubr
          440.00999450683594 301 callsubr
          hintmask 1011111110000000
          1198.979995727539 1544.990005493164 rmoveto
          -589.9900054931641 -489 -487 -724.0099945068359 -516.9900054931641 298.97999572753906 -244.99000549316406 464.02000427246094 170.99000549316406 153 46 70 92 hvcurveto
          -83 callsubr
          70 rlineto
          156 callsubr
          -63.02000427246094 153 callsubr
          -41.99000549316406 -150 hhcurveto
          -401 -264 202 507.97999572753906 547 344 501 554 330 287 -158 -429 -373 -218 -343 -182 46 callsubr
          -5 74 callsubr
          497 callsubr
          -2 hvcurveto
          -4 100 callsubr
          -84 callgsubr
          104 12 106 23 203 49 267 41 154 -128 -25 rcurveline
          39 -59 -112 180 callsubr
          -57 hhcurveto
          -369.99000549316406 -168.02000427246094 -367 -291 51 callsubr
          hintmask 1101111110000000
          -297 -2 145 -130 135 hhcurveto
          156 154 275 215 87 hvcurveto
          hintmask 1011111110000000
          -30 -124 -17 -116 390 callsubr
          vvcurveto
          385 callgsubr
          6 -84.99000549316406 93 261 335 493 callgsubr
          559 400.02000427246094 -264.99000549316406 236 -404.00999450683594 vhcurveto
          hintmask 1101111110000000
          -349 -1408 rmoveto
          225 callsubr
          -68.00999450683594 113 193.99000549316406 245 95 302 297 1 hvcurveto
          58 101 -25 -25 callgsubr
          42 hvcurveto
          -82 -343 -206 -430 -136 -1 rrcurveto
          endchar
        </CharString>
        <CharString name="atilde">
          36 callgsubr
          182.989990234375 130 16 130 32 callgsubr
          hintmask 01110100
          579.9900054931641 1491.990005493164 rmoveto
          -1 111 132 callgsubr
          -145 154 hhcurveto
          105.99000549316406 1 callgsubr
          8 callgsubr
          -66 callsubr
          154 callsubr
          hvcurveto
          -46 74 rlineto
          -45 347 callsubr
          -23 callgsubr
          -74 -80 -98.02000427246094 -26 callsubr
          146 -129 hhcurveto
          hintmask 01111100
          408 callgsubr
          37 -69 rlineto
          hintmask 01110100
          100 callsubr
          43 65 62 61 -1 rrcurveto
          hintmask 10110100
          363.99000549316406 -1407 rmoveto
          -90 callgsubr
          hvcurveto
          hintmask 01110100
          -86 callsubr
          hintmask 10110100
          -87 callgsubr
          53 callsubr
          -162 257 rmoveto
          hintmask 01110100
          -92 callsubr
          hintmask 10110100
          297 callsubr
        </CharString>
        <CharString name="b">
          49 151 callgsubr
          hstem
          930.9700012207031 156.00999450683594 vstem
          262 callsubr
          77 36.97999572753906 rlineto
          -26 56 105 -44 callgsubr
          85 23 callsubr
        </CharString>
        <CharString name="backslash">
          -273 -362 1958.990005493164 hstem
          133.97999572753906 709.0200042724609 vstem
          709.9799957275391 -362 rmoveto
          133.02000427246094 hlineto
          -577 1958.990005493164 rlineto
          -132 hlineto
          576 -1958.990005493164 rlineto
          endchar
        </CharString>
        <CharString name="bar">
          454 callsubr
          382.99000549316406 421 callgsubr
          vstem
          383 1780 rmoveto
          -1965.990005493164 132 1965.990005493164 -132 vlineto
          endchar
        </CharString>
        <CharString name="braceleft">
          -107 -181 108.99000549316406 1689.989990234375 107 hstem
          386 callgsubr
          818.9900054931641 vstem
          469 callsubr
          578.9900054931641 rmoveto
          0 -94 -620.9900054931641 -1 -23 vhcurveto
          -89 298 callsubr
          154 callsubr
          -27 97 hhcurveto
          110 74.02000427246094 17 255 callgsubr
          -70 callsubr
          hvcurveto
          0 7 58.99000549316406 2 12 vhcurveto
          -275 hlineto
          98 648 7 143 callsubr
          136 callsubr
          37 -40 100 callgsubr
          rlinecurve
          -34 130 callsubr
          -58 29.990005493164062 -64 31 22 6 119 callsubr
          46 35 16 65 32 154 callsubr
          40 -68 callsubr
          54 99 647.9900054931641 rcurveline
          275.99000549316406 hlineto
          14 10 56 0 vhcurveto
          0 -174.99000549316406 37 -89 -118 -37 -42 -158 -23 vhcurveto
          -85 -558 -5 226 callgsubr
          -23 -27 -51 222 callsubr
          rlinecurve
          70 callgsubr
          -24 244 callsubr
          -23 -69 -17 46 callgsubr
          225 callsubr
          rcurveline
          63 -17 64 -25 46 -29 -51 callsubr
          -21 24 -25 -2 -30 rrcurveto
          endchar
        </CharString>
</ttFont>
